<?xml version="1.0" encoding="UTF-8"?>
<svg width="43px" height="43px" viewBox="0 0 43 43" version="1.1" xmlns="http://www.w3.org/2000/svg" xmlns:xlink="http://www.w3.org/1999/xlink">
    <!-- Generator: Sketch 64 (93537) - https://sketch.com -->
    <title>Group 2</title>
    <desc>Created with Sketch.</desc>
    <g id="Home-Page" stroke="none" stroke-width="1" fill="none" fill-rule="evenodd">
        <g id="Trade-Program" transform="translate(-495.000000, -1313.000000)" fill-rule="nonzero">
            <g id="Group-5" transform="translate(325.000000, 1281.000000)">
                <g id="Group" transform="translate(170.000000, 32.000000)">
                    <g id="Group-2">
                        <g id="Group-7" fill="#009A78">
                            <circle id="Oval" cx="21.35" cy="21.35" r="21.35"></circle>
                        </g>
                        <path d="M26.0789036,29.3222934 C26.5627145,29.3222934 26.9739543,29.1529593 27.3126219,28.8142917 L34.7149321,21.4119816 C35.0535997,21.073314 35.2229337,20.6620742 35.2229337,20.1782632 C35.2229337,19.6944523 35.0535997,19.2832125 34.7149321,18.9445449 L27.0223353,11.2519481 C26.6836677,10.9132805 26.2724278,10.7439464 25.7886169,10.7439464 L23.9380394,10.7439464 L25.0991861,11.9050931 L25.7886169,11.9050931 C25.957951,11.9050931 26.0909987,11.9655696 26.1877611,12.0865222 L33.8803579,19.779119 C34.0013105,19.8758815 34.061787,20.0089291 34.061787,20.1782632 C34.061787,20.3475973 34.0013105,20.480645 33.8803579,20.5774074 L26.4780477,27.9797175 C26.3812853,28.1006701 26.2482377,28.1611467 26.0789036,28.1611467 C25.9095695,28.1611467 25.7765218,28.1006701 25.6797594,27.9797175 L25.6071877,27.9434317 L24.7726136,28.74172 L24.8451852,28.8142917 C25.1838528,29.1529593 25.5950926,29.3222934 26.0789036,29.3222934 Z M21.4343168,29.3222934 C21.9181278,29.3222934 22.3293676,29.1529593 22.6680352,28.8142917 L30.0703453,21.4119816 C30.4090129,21.073314 30.578347,20.6620742 30.578347,20.1782632 C30.578347,19.6944523 30.4090129,19.2832125 30.0703453,18.9445449 L22.3777485,11.2519481 C22.0390809,10.9132805 21.6278411,10.7439464 21.1440302,10.7439464 L13.74172,10.7439464 C13.2579091,10.7439464 12.8466693,10.9132805 12.5080017,11.2519481 C12.1693341,11.5906157 12,12.0018555 12,12.4856664 L12,19.8879765 C12,20.3717875 12.1693341,20.7830273 12.5080017,21.1216949 L20.2005985,28.8142917 C20.5392661,29.1529593 20.9505059,29.3222934 21.4343168,29.3222934 Z M21.4343168,28.1611467 C21.2649828,28.1611467 21.1319351,28.1006701 21.0351727,27.9797175 L13.3425759,20.2871207 C13.2216233,20.1903583 13.1611467,20.0573106 13.1611467,19.8879765 L13.1611467,12.4856664 C13.1611467,12.3163323 13.2155754,12.1772368 13.3244329,12.0683793 C13.4332904,11.9595218 13.572386,11.9050931 13.74172,11.9050931 L21.1440302,11.9050931 C21.3133642,11.9050931 21.4464119,11.9655696 21.5431743,12.0865222 L29.2357711,19.779119 C29.3567237,19.8758815 29.4172003,20.0089291 29.4172003,20.1782632 C29.4172003,20.3475973 29.3567237,20.480645 29.2357711,20.5774074 L21.833461,27.9797175 C21.7366986,28.1006701 21.6036509,28.1611467 21.4343168,28.1611467 Z M17.2251601,17.7108265 C17.708971,17.7108265 18.1202108,17.5414924 18.4588784,17.2028248 C18.797546,16.8641572 18.9668801,16.4529174 18.9668801,15.9691065 C18.9668801,15.4852955 18.797546,15.0740557 18.4588784,14.7353881 C18.1202108,14.3967205 17.708971,14.2273864 17.2251601,14.2273864 C16.7413492,14.2273864 16.3301093,14.3967205 15.9914417,14.7353881 C15.6527741,15.0740557 15.4834401,15.4852955 15.4834401,15.9691065 C15.4834401,16.4529174 15.6527741,16.8641572 15.9914417,17.2028248 C16.3301093,17.5414924 16.7413492,17.7108265 17.2251601,17.7108265 Z M17.2251601,16.6948232 C17.0316358,16.6948232 16.8623018,16.6222515 16.7171584,16.4771082 C16.5720151,16.3319648 16.4994434,16.1626307 16.4994434,15.9691065 C16.4994434,15.7755822 16.5720151,15.6062481 16.7171584,15.4611048 C16.8623018,15.3159615 17.0316358,15.2433898 17.2251601,15.2433898 C17.4186844,15.2433898 17.5880184,15.3159615 17.7331618,15.4611048 C17.8783051,15.6062481 17.9508768,15.7755822 17.9508768,15.9691065 C17.9508768,16.1626307 17.8783051,16.3319648 17.7331618,16.4771082 C17.5880184,16.6222515 17.4186844,16.6948232 17.2251601,16.6948232 Z" id="" fill="#FFFFFF"></path>
                    </g>
                </g>
            </g>
        </g>
    </g>
</svg>