<?xml version="1.0" encoding="UTF-8"?>
<svg width="22px" height="22px" viewBox="0 0 22 22" version="1.1" xmlns="http://www.w3.org/2000/svg" xmlns:xlink="http://www.w3.org/1999/xlink">
    <!-- Generator: Sketch 61 (89581) - https://sketch.com -->
    <title>facebook</title>
    <desc>Created with Sketch.</desc>
    <g id="Symbols" stroke="none" stroke-width="1" fill="none" fill-rule="evenodd">
        <g id="Footer" transform="translate(-1359.000000, -75.000000)" fill="#0B6A83" fill-rule="nonzero">
            <g id="Group-2">
                <g transform="translate(1319.000000, 75.000000)">
                    <g id="facebook" transform="translate(40.400000, 0.159772)">
                        <path d="M11.403343,21.3663991 L11.403343,13.0916887 L8.61810822,13.0916887 L8.61810822,9.86767034 L11.403343,9.86767034 L11.403343,7.48777824 C11.403343,4.7263433 13.0916887,3.22401837 15.5526214,3.22401837 C16.7354415,3.22401837 17.7464927,3.31465343 18.0421977,3.35279839 L18.0421977,6.23821612 L16.3348029,6.23821612 C14.9946523,6.23821612 14.7370922,6.87252178 14.7370922,7.80732969 L14.7370922,9.86767034 L17.9325135,9.86767034 L17.5175763,13.0916887 L14.7418429,13.0916887 L14.7418429,21.3616484 L20.1883762,21.3616484 C20.837027,21.3616484 21.3663991,20.837027 21.3663991,20.1836256 L21.3663991,1.17802283 C21.3663991,0.529372061 20.837027,7.10542736e-15 20.1836256,7.10542736e-15 L1.17802283,7.10542736e-15 C0.529372061,7.10542736e-15 7.81597009e-14,0.529372061 7.81597009e-14,1.17802283 L7.81597009e-14,20.1883762 C7.81597009e-14,20.837027 0.529372061,21.3663991 1.17802283,21.3663991 L11.403343,21.3663991 Z" id="f"></path>
                    </g>
                </g>
            </g>
        </g>
    </g>
</svg>