<?xml version="1.0" encoding="UTF-8"?>
<svg width="20px" height="23px" viewBox="0 0 20 23" version="1.1" xmlns="http://www.w3.org/2000/svg" xmlns:xlink="http://www.w3.org/1999/xlink">
    <!-- Generator: Sketch 61 (89581) - https://sketch.com -->
    <title>cart-icon</title>
    <desc>Created with Sketch.</desc>
    <g id="Symbols" stroke="none" stroke-width="1" fill="none" fill-rule="evenodd">
        <g id="Header" transform="translate(-1363.000000, -43.000000)" fill="#009A78" fill-rule="nonzero">
            <g id="Cart-Button" transform="translate(1320.000000, 34.000000)">
                <g id="Shopping-bag" transform="translate(43.000000, 0.000000)">
                    <g id="cart-icon" transform="translate(0.000000, 9.600000)">
                        <path d="M15.0857143,6.75 L15.0857143,5.4 C15.0857143,2.42240625 12.6248143,-4.61852778e-14 9.6,-4.61852778e-14 C6.57514286,-4.61852778e-14 4.11428571,2.42240625 4.11428571,5.4 L4.11428571,6.75 L-9.05941988e-14,6.75 L-9.05941988e-14,18.225 C-9.05941988e-14,20.0889703 1.53501429,21.6 3.42857143,21.6 L15.7714286,21.6 C17.6649857,21.6 19.2,20.0889703 19.2,18.225 L19.2,6.75 L15.0857143,6.75 Z M6.85714286,5.4 C6.85714286,3.91120312 8.08757143,2.7 9.6,2.7 C11.1124286,2.7 12.3428571,3.91120312 12.3428571,5.4 L12.3428571,6.75 L6.85714286,6.75 L6.85714286,5.4 Z M13.7142857,10.4625 C13.1462143,10.4625 12.6857143,10.0091953 12.6857143,9.45 C12.6857143,8.89080469 13.1462143,8.4375 13.7142857,8.4375 C14.2823571,8.4375 14.7428571,8.89080469 14.7428571,9.45 C14.7428571,10.0091953 14.2823571,10.4625 13.7142857,10.4625 Z M5.48571429,10.4625 C4.91764286,10.4625 4.45714286,10.0091953 4.45714286,9.45 C4.45714286,8.89080469 4.91764286,8.4375 5.48571429,8.4375 C6.05378571,8.4375 6.51428571,8.89080469 6.51428571,9.45 C6.51428571,10.0091953 6.05378571,10.4625 5.48571429,10.4625 Z" id="Shape"></path>
                    </g>
                </g>
            </g>
        </g>
    </g>
</svg>