<?xml version="1.0" encoding="UTF-8"?>
<svg width="22px" height="22px" viewBox="0 0 22 22" version="1.1" xmlns="http://www.w3.org/2000/svg" xmlns:xlink="http://www.w3.org/1999/xlink">
    <!-- Generator: Sketch 61 (89581) - https://sketch.com -->
    <title>ig</title>
    <desc>Created with Sketch.</desc>
    <g id="Symbols" stroke="none" stroke-width="1" fill="none" fill-rule="evenodd">
        <g id="Footer" transform="translate(-1319.000000, -75.000000)" fill="#0B6A83" fill-rule="nonzero">
            <g id="Group-2">
                <g transform="translate(1319.000000, 75.000000)">
                    <g id="ig" transform="translate(-0.003563, 0.151424)">
                        <path d="M15.0983516,21.2984577 C16.8105437,21.2173705 18.3271672,20.8262798 19.5767293,19.571967 C20.8262449,18.3224049 21.2173356,16.8057814 21.3031734,15.0935893 C21.4033564,13.3289537 21.4033564,8.04459465 21.3031734,6.27995902 C21.2221328,4.56776689 20.8310421,3.05114341 19.5767293,1.8015813 C18.3271672,0.552065756 16.8105437,0.16097503 15.0983516,0.0751372055 C13.333716,-0.0250457352 8.04455972,-0.0250457352 6.27992408,0.0751372055 C4.57252919,0.156177799 3.05590571,0.547268525 1.80159294,1.79683064 C0.547280169,3.04639276 0.160940098,4.56301623 0.0751022742,6.27520836 C-0.0250340914,8.039844 -0.0250340914,13.3289537 0.0751022742,15.0935893 C0.156189443,16.8057814 0.547280169,18.3224049 1.80159294,19.571967 C3.05590571,20.8215291 4.56777853,21.2125733 6.27992408,21.2984577 C8.04455972,21.3985941 13.333716,21.3985941 15.0983516,21.2984577 Z M10.6915132,19.4479377 C9.13674473,19.4479377 5.79349422,19.571967 4.39130566,19.018702 C3.45654433,18.646707 2.73635427,17.9265635 2.35960866,16.987005 C1.80159294,15.5800657 1.93037297,12.2415659 1.93037297,10.6867975 C1.93037297,9.13198243 1.8063436,5.78873192 2.35960866,4.38654336 C2.73160361,3.45178203 3.4517471,2.73159197 4.39130566,2.35484636 C5.79824488,1.79683064 9.13674473,1.92561067 10.6915132,1.92561067 C12.2463282,1.92561067 15.5895787,1.8015813 16.9917673,2.35484636 C17.9265286,2.72684132 18.6467187,3.4469848 19.0234643,4.38654336 C19.58148,5.79348258 19.4527,9.13198243 19.4527,10.6867975 C19.4527,12.2415659 19.58148,15.5848164 19.0234643,16.987005 C18.6514693,17.9217663 17.9313258,18.6419564 16.9917673,19.018702 C15.584828,19.5767177 12.2463282,19.4479377 10.6915132,19.4479377 Z M16.3956066,6.26086324 C17.1014515,6.26086324 17.6737658,5.69334621 17.6737658,4.98270404 C17.6737658,4.2768591 17.1014515,3.70454484 16.3956066,3.70454484 C15.6897616,3.70454484 15.1174474,4.2768591 15.1174474,4.98270404 C15.1174474,5.68854898 15.6849644,6.26086324 16.3956066,6.26086324 Z M10.6915132,16.1666786 C13.7248067,16.1666786 16.1714409,13.7200444 16.1714409,10.6867975 C16.1714409,7.65350393 13.7248067,5.20686978 10.6915132,5.20686978 C7.65826623,5.20686978 5.21163208,7.65350393 5.21163208,10.6867975 C5.21163208,13.7200444 7.65826623,16.1666786 10.6915132,16.1666786 Z M10.6915132,14.2494165 C8.73135546,14.2494165 7.12889416,12.6517058 7.12889416,10.6867975 C7.12889416,8.72184251 8.72660481,7.12413187 10.6915132,7.12413187 C12.6564681,7.12413187 14.2541788,8.72184251 14.2541788,10.6867975 C14.2541788,12.6517058 12.6517175,14.2494165 10.6915132,14.2494165 Z" id="i"></path>
                    </g>
                </g>
            </g>
        </g>
    </g>
</svg>