<?xml version="1.0" encoding="UTF-8"?>
<svg width="18px" height="18px" viewBox="0 0 18 18" version="1.1" xmlns="http://www.w3.org/2000/svg" xmlns:xlink="http://www.w3.org/1999/xlink">
    <!-- Generator: Sketch 61.1 (89650) - https://sketch.com -->
    <title>Box</title>
    <desc>Created with Sketch.</desc>
    <g id="Shop" stroke="none" stroke-width="1" fill="none" fill-rule="evenodd">
        <g id="Shop---Single" transform="translate(-1365.000000, -266.000000)" fill="#0B6A83" fill-rule="nonzero">
            <g id="Box" transform="translate(1365.000000, 266.000000)">
                <path d="M15.4335747,17.0301514 C16.3150181,17.0301514 17.0301514,16.3150181 17.0301514,15.4335747 L17.0301514,6.64574399 C17.0301514,6.47277502 17.0035483,6.30315174 16.9469964,6.14015488 L15.2639514,1.09098758 C15.0477483,0.439065087 14.4390275,7.10542736e-15 13.7505298,7.10542736e-15 L3.27962163,7.10542736e-15 C2.59112392,7.10542736e-15 1.98240307,0.439065087 1.76619997,1.09098758 L0.0831550362,6.14015488 C0.029948806,6.30315174 0,6.47277502 0,6.64574399 L0,15.4335747 C0,16.3150181 0.715133311,17.0301514 1.59657669,17.0301514 L15.4335747,17.0301514 Z M15.3471065,6.38630678 L9.31336405,6.38630678 L9.31336405,1.59657669 L13.7505298,1.59657669 L15.3471065,6.38630678 Z M7.71678736,6.38630678 L1.68304494,6.38630678 L3.27962163,1.59657669 L7.71678736,1.59657669 L7.71678736,6.38630678 Z M15.4335747,15.4335747 L1.59657669,15.4335747 L1.59657669,7.98288347 L15.4335747,7.98288347 L15.4335747,15.4335747 Z" id=""></path>
            </g>
        </g>
    </g>
</svg>