<?xml version="1.0" encoding="UTF-8"?>
<svg width="32px" height="32px" viewBox="0 0 32 32" version="1.1" xmlns="http://www.w3.org/2000/svg" xmlns:xlink="http://www.w3.org/1999/xlink">
    <!-- Generator: Sketch 64 (93537) - https://sketch.com -->
    <title>previous</title>
    <desc>Created with Sketch.</desc>
    <g id="About" stroke="none" stroke-width="1" fill="none" fill-rule="evenodd">
        <g transform="translate(-43.000000, -3704.000000)" fill-rule="nonzero" id="previous">
            <g transform="translate(59.000000, 3720.000000) scale(-1, 1) translate(-59.000000, -3720.000000) translate(43.000000, 3704.000000)">
                <circle id="Oval" fill="#0B6A83" cx="16" cy="16" r="16"></circle>
                <path d="M15.9830245,26.1264657 C16.1354915,26.1264657 16.2574656,26.0807255 16.348946,25.9892451 L16.348946,25.9892451 L25.9086469,16.383804 C26.030621,16.2923236 26.0916077,16.1703495 26.0916077,16.0178824 C26.0916077,15.8654153 26.030621,15.7434412 25.9086469,15.6519608 L25.9086469,15.6519608 L16.348946,6.04651971 C16.2574656,5.95503932 16.1354915,5.90929912 15.9830245,5.90929912 C15.8305574,5.90929912 15.6933368,5.95503932 15.5713627,6.04651971 L15.5713627,6.04651971 L14.6565588,6.96132363 C14.5650784,7.05280402 14.5193382,7.17477811 14.5193382,7.32724519 C14.5193382,7.47971228 14.5650784,7.61693287 14.6565588,7.73890696 L14.6565588,7.73890696 L21.7462891,14.8286373 L6.14888235,14.8286373 C5.99641526,14.8286373 5.86681758,14.8820011 5.76009069,14.988728 C5.65336379,15.0954549 5.6,15.2250526 5.6,15.3775197 L5.6,15.3775197 L5.6,16.6582451 C5.6,16.8107122 5.65336379,16.9403099 5.76009069,17.0470368 C5.86681758,17.1537637 5.99641526,17.2071275 6.14888235,17.2071275 L6.14888235,17.2071275 L21.7462891,17.2071275 L14.6565588,24.2968578 C14.5650784,24.4188319 14.5193382,24.5560525 14.5193382,24.7085196 C14.5193382,24.8609867 14.5650784,24.9829608 14.6565588,25.0744412 L14.6565588,25.0744412 L15.5713627,25.9892451 C15.6933368,26.0807255 15.8305574,26.1264657 15.9830245,26.1264657 Z" id="ï¡" fill="#FFFFFF"></path>
            </g>
        </g>
    </g>
</svg>