<?xml version="1.0" encoding="UTF-8"?>
<svg width="47px" height="47px" viewBox="0 0 47 47" version="1.1" xmlns="http://www.w3.org/2000/svg" xmlns:xlink="http://www.w3.org/1999/xlink">
    <!-- Generator: Sketch 64 (93537) - https://sketch.com -->
    <title>quote icon</title>
    <desc>Created with Sketch.</desc>
    <g id="About" stroke="none" stroke-width="1" fill="none" fill-rule="evenodd">
        <g transform="translate(-450.000000, -3559.000000)" fill-rule="nonzero" id="Group-2">
            <g transform="translate(212.000000, 3559.000000)">
                <g id="quote-icon" transform="translate(238.000000, 0.000000)">
                    <circle id="Oval" fill="#009A78" cx="23.5" cy="23.5" r="23.5"></circle>
                    <path d="M20.94245,29.4854 C20.94245,31.8178 19.10985,33.2339 16.94405,33.2339 C13.77865,33.2339 11.27965,30.3184 11.27965,26.0701 C11.27965,20.9055 14.77825,16.8238 19.02655,14.4914 C19.44305,14.2415 19.94285,15.491 19.60965,15.6576 C16.61085,17.2403 15.11145,19.9059 15.11145,21.6552 C15.11145,23.0713 15.86115,24.3208 17.77705,25.4037 C20.19275,26.7365 20.94245,28.0693 20.94245,29.4854 Z M35.18675,29.4854 C35.18675,31.8178 33.35415,33.2339 31.18835,33.2339 C28.02295,33.2339 25.52395,30.3184 25.52395,26.0701 C25.52395,20.9055 29.02255,16.8238 33.27085,14.4914 C33.68735,14.2415 34.18715,15.491 33.85395,15.6576 C30.85515,17.2403 29.35575,19.9059 29.35575,21.6552 C29.35575,23.0713 30.10545,24.3208 32.02135,25.4037 C34.43705,26.7365 35.18675,28.0693 35.18675,29.4854 Z" id="“-copy" fill="#FFFFFF"></path>
                </g>
            </g>
        </g>
    </g>
</svg>