<?xml version="1.0" encoding="UTF-8"?>
<svg width="50px" height="47px" viewBox="0 0 50 47" version="1.1" xmlns="http://www.w3.org/2000/svg" xmlns:xlink="http://www.w3.org/1999/xlink">
    <!-- Generator: Sketch 64 (93537) - https://sketch.com -->
    <title>Group 3</title>
    <desc>Created with Sketch.</desc>
    <g id="Shop" stroke="none" stroke-width="1" fill="none" fill-rule="evenodd">
        <g id="Shop---Cart" transform="translate(-695.000000, -1696.000000)" fill-rule="nonzero">
            <g id="Group-3" transform="translate(695.000000, 1696.000000)">
                <ellipse id="Oval" fill="#009A78" cx="25" cy="23.5" rx="25" ry="23.5"></ellipse>
                <path d="M34.0757979,34 C35.2320894,34 36.1702128,33.1181641 36.1702128,32.03125 L36.1702128,21.1949139 C36.1702128,20.9816246 36.1353144,20.7724609 36.0611287,20.5714684 L33.8532833,14.3453045 C33.5696647,13.5414143 32.7711349,13 31.8679525,13 L18.1320475,13 C17.2288651,13 16.4303353,13.5414143 16.1467167,14.3453045 L13.9388713,20.5714684 C13.8690746,20.7724609 13.8297872,20.9816246 13.8297872,21.1949139 L13.8297872,32.03125 C13.8297872,33.1181641 14.7679106,34 15.9242021,34 L34.0757979,34 Z M33.9623674,20.875 L26.0472074,20.875 L26.0472074,14.96875 L31.8679525,14.96875 L33.9623674,20.875 Z M23.9527926,20.875 L16.0376326,20.875 L18.1320475,14.96875 L23.9527926,14.96875 L23.9527926,20.875 Z M34.0757979,32.03125 L15.9242021,32.03125 L15.9242021,22.84375 L34.0757979,22.84375 L34.0757979,32.03125 Z" id="" fill="#FFFFFF"></path>
            </g>
        </g>
    </g>
</svg>