<?xml version="1.0" encoding="UTF-8"?>
<svg width="249px" height="113px" viewBox="0 0 249 113" version="1.1" xmlns="http://www.w3.org/2000/svg" xmlns:xlink="http://www.w3.org/1999/xlink">
    <!-- Generator: Sketch 61 (89581) - https://sketch.com -->
    <title>Main Mark</title>
    <desc>Created with Sketch.</desc>
    <g id="Symbols" stroke="none" stroke-width="1" fill="none" fill-rule="evenodd">
        <g id="Header" transform="translate(-596.000000, -26.000000)">
            <g id="Main-Mark" transform="translate(596.000000, 26.000000)">
                <path d="M124.805696,40.4903957 C124.789071,38.8094773 124.704738,37.1291634 124.580203,35.4488496 C124.455668,33.7682335 124.306952,32.0879197 124.089318,30.4073036 C123.859896,28.7269897 123.570322,27.0460713 123.352084,25.3648507 L122.766891,20.3199797 C122.588552,18.6378522 122.510567,16.9557248 122.436813,15.2735973 C122.36185,13.5911676 122.256661,11.9087379 122.376661,10.2269127 C122.500592,8.54538979 122.74543,6.86416914 123.1012,5.18385531 C123.280748,4.34384952 123.482059,3.50414601 123.739895,2.66474476 C123.984733,1.82534351 124.265843,0.986546806 124.638541,0.148052367 C124.694763,0.0223084278 124.84227,-0.03451816 124.968316,0.0217038896 C125.026957,0.0476990308 125.071995,0.0966666224 125.096176,0.151075058 C125.468874,0.993801264 125.749682,1.83562066 125.994822,2.67713779 C126.252658,3.51865492 126.454271,4.35956751 126.633215,5.20078237 C126.989288,6.88230529 127.233823,8.56261913 127.357754,10.2426307 C127.478057,11.92234 127.372867,13.601747 127.297904,15.2811541 C127.224151,16.9605611 127.145863,18.6402704 126.967826,20.3199797 L126.382634,25.3600144 C126.164395,27.0403282 125.874821,28.7212466 125.645399,30.4024673 C125.427765,32.0836879 125.279049,33.7649085 125.154514,35.4461292 C125.029677,37.1273498 124.945646,38.8085705 124.929021,40.4894889 C124.929021,40.5236453 124.901515,40.551454 124.867661,40.551454 C124.834109,40.551454 124.806603,40.5236453 124.805696,40.4903957" id="Fill-1" fill="#0B6A83"></path>
                <path d="M127.222942,41.3373536 C128.680181,40.5221339 129.900139,39.311244 130.684829,37.8676068 C131.511233,36.4466399 131.952244,34.8461251 132.196477,33.2447034 C132.433456,31.637841 132.448872,30.0019607 132.30076,28.398121 C132.161112,26.8009311 131.84524,25.2082753 131.502467,23.5859971 C131.156974,21.9634167 130.812085,20.3036572 130.515256,18.5689349 C130.237169,16.8384444 129.97752,14.9927893 130.246539,13.1036076 C130.497725,11.2325619 131.267302,9.3382416 132.351541,7.80090103 C133.446662,6.31101672 134.734631,5.06506356 136.314893,4.10868417 C136.425524,4.04158044 136.569706,4.07694592 136.63681,4.18787867 C136.668548,4.24047349 136.677314,4.30062504 136.665828,4.35654482 L136.664921,4.36047432 C136.296455,6.13660746 135.79892,7.74921302 135.423502,9.27929912 C135.331007,9.66136725 135.249395,10.026206 135.198614,10.3871153 C135.126371,10.7425838 135.06229,11.0938204 135.023902,11.459566 C134.999418,11.6391139 134.979469,11.818964 134.949846,11.9954891 C134.933524,12.1768506 134.92506,12.3594211 134.903901,12.5386667 C134.857654,12.8944374 134.838007,13.2589739 134.80778,13.6232081 C134.693824,15.0722861 134.529692,16.6011631 134.546015,18.2128619 C134.547526,19.8233516 134.683245,21.488552 134.735537,23.1996972 C134.79055,24.9099357 134.793271,26.6685373 134.6107,28.4304637 C134.432361,30.1830199 134.053618,31.9041401 133.524043,33.5648064 C132.961218,35.2158001 132.210381,36.809665 131.163019,38.1843848 C130.137722,39.5739158 128.779325,40.6775002 127.274932,41.4383115 C127.247123,41.4525182 127.212967,41.4413342 127.19876,41.4132232 C127.184856,41.386019 127.196644,41.3521648 127.222942,41.3373536" id="Fill-2" fill="#0B6A83"></path>
                <path d="M127.813273,43.0355013 C129.342452,42.8311674 130.836266,42.3729275 132.1596,41.6284388 C132.828522,41.2690408 133.438501,40.8162417 134.016741,40.3377498 C134.586519,39.845958 135.09826,39.2940146 135.572218,38.7157739 C137.460795,36.3677476 138.374555,33.3786087 138.619695,30.3876561 C138.752996,28.8877969 138.881158,27.4030511 138.976675,25.9074237 C139.069774,24.4057509 139.046801,22.9158666 139.239347,21.3894077 C139.339096,20.6044149 139.494462,19.7780112 139.742322,18.9416327 C139.980813,18.1058586 140.315727,17.2452986 140.822028,16.4191972 C141.321074,15.6018616 142.025361,14.7981281 142.938516,14.3108703 C143.849555,13.8193808 144.883617,13.7238637 145.729064,13.9838151 C145.853297,14.0219011 145.923121,14.1536904 145.885035,14.2782252 C145.869015,14.3299132 145.836974,14.3725332 145.795563,14.401551 L145.785588,14.4085032 C145.097624,14.8930406 144.643616,15.4096184 144.400591,15.9585391 C144.150917,16.5014143 144.041798,17.0657507 143.964115,17.680566 C143.809655,18.9095921 143.871016,20.3048662 143.787287,21.8101663 C143.708697,23.3719906 143.346881,24.9661578 142.959675,26.5276799 C142.766827,27.3108591 142.551007,28.0934337 142.305867,28.866638 C142.052263,29.6404469 141.747576,30.3991423 141.419009,31.1484673 C141.091349,31.8974901 140.733161,32.6326086 140.346558,33.3517067 C139.975674,34.0756412 139.576377,34.7838576 139.167407,35.4799833 C138.347351,36.8728393 137.39611,38.1849894 136.2892,39.3496321 C135.164155,40.4979524 133.842937,41.4507045 132.388418,42.0890968 C130.937224,42.7368595 129.375097,43.0469876 127.826875,43.174161 C127.788487,43.1769633 127.754935,43.14855 127.751912,43.1101618 C127.74889,43.073285 127.776699,43.0400354 127.813273,43.0355013" id="Fill-3" fill="#0B6A83"></path>
                <path d="M127.955642,44.9053379 C130.855007,45.8435811 134.03125,45.8982918 136.828751,44.9715348 C138.220095,44.495461 139.515016,43.802358 140.588374,42.8550467 C141.665661,41.9101535 142.521082,40.7838989 143.001992,39.4965349 C143.254689,38.8605608 143.440585,38.2013119 143.608949,37.5320881 C143.778219,36.8637712 143.94749,36.1824567 144.076257,35.4733334 C144.354646,34.062039 144.474345,32.5361847 144.944373,31.0233279 C145.388104,29.5845271 146.107505,27.7793761 147.401519,26.418863 C148.042934,25.7348281 148.835181,25.128174 149.748941,24.7875167 C150.65605,24.4432323 151.658374,24.3969851 152.482058,24.7092291 C152.60357,24.7554762 152.66493,24.8914973 152.618985,25.0130095 C152.599338,25.0646975 152.563066,25.1058061 152.518934,25.1321035 L152.512587,25.1357307 C151.096758,25.9742252 150.587133,27.068137 150.177256,28.2424524 C149.98471,28.8355043 149.829949,29.451831 149.712668,30.0832711 C149.603851,30.6778344 149.500475,31.4443888 149.339668,32.1571393 C149.043142,33.6068218 148.508126,35.0728269 147.928676,36.599588 C147.625802,37.3576789 147.319906,38.1336036 146.905798,38.8802082 C146.491689,39.6249993 146.006245,40.3465156 145.451883,41.0112053 C143.220231,43.6914253 140.241973,45.4122432 137.102304,46.0303834 C133.951754,46.6179945 130.766442,46.1382935 127.913324,45.0235251 C127.880981,45.0108298 127.864961,44.9745575 127.877656,44.9419125 C127.889747,44.911081 127.924508,44.8950608 127.955642,44.9053379" id="Fill-4" fill="#0B6A83"></path>
                <path d="M127.439064,46.6098333 C128.516956,47.7016292 129.73782,48.640477 131.067804,49.3432526 C132.40595,50.0257762 133.847169,50.4812957 135.313778,50.605226 C138.240045,50.8932885 141.219814,49.9982697 143.5225,48.2272751 C144.092579,47.7738715 144.597369,47.2379484 145.065281,46.6835869 C145.542564,46.1413162 145.979343,45.5733526 146.448464,45.0534498 C147.369478,43.9861376 148.132405,42.8078927 148.884753,41.6417386 C149.738059,40.3147773 150.986732,38.934919 152.773445,38.0435274 C153.659698,37.6079577 154.721871,37.3392405 155.746261,37.4429188 C156.770954,37.5387381 157.676552,38.0039302 158.280183,38.6668063 C158.371166,38.7668573 158.363912,38.9219214 158.263861,39.0129044 C158.228797,39.0449449 158.186782,39.0648947 158.143255,39.0727537 L158.135094,39.074265 C157.291159,39.2253995 156.625562,39.4799101 156.12833,39.8266128 C155.629283,40.1708972 155.263538,40.5774492 154.901722,41.0338755 C154.177787,41.9506576 153.564785,43.093537 152.664326,44.2763159 C151.649306,45.6283655 150.405167,46.8002628 149.100573,47.8566932 C147.786307,48.9203781 146.181863,49.5868815 144.656311,50.2016968 C143.8955,50.5190793 143.133177,50.8174189 142.356648,51.0664886 C141.574678,51.3031653 140.78908,51.5132423 139.987765,51.649868 C138.389668,51.916167 136.744115,51.9699709 135.162039,51.6537975 C133.576335,51.3666418 132.082522,50.7167633 130.763419,49.860435 C129.450967,48.9850637 128.310506,47.8990109 127.34264,46.6950731 C127.320574,46.6675667 127.324806,46.6267603 127.352615,46.6046947 C127.37861,46.5838381 127.416092,46.5868608 127.439064,46.6098333" id="Fill-5" fill="#0B6A83"></path>
                <path d="M126.04379,44.2811522 C126.04379,44.9307285 125.516935,45.4572812 124.867359,45.4572812 C124.217782,45.4572812 123.690927,44.9307285 123.690927,44.2811522 C123.690927,43.6312737 124.217782,43.104721 124.867359,43.104721 C125.516935,43.104721 126.04379,43.6312737 126.04379,44.2811522" id="Fill-6" fill="#0B6A83"></path>
                <path d="M121.840738,41.4383115 C120.336345,40.6775002 118.97825,39.5739158 117.952651,38.1843848 C116.905591,36.809665 116.154452,35.2158001 115.591627,33.5648064 C115.062052,31.9041401 114.683611,30.1830199 114.50497,28.4304637 C114.322399,26.6685373 114.325422,24.9099357 114.380133,23.1996972 C114.432728,21.488552 114.568144,19.8233516 114.569958,18.2128619 C114.58628,16.6011631 114.421846,15.0722861 114.30789,13.6232081 C114.277663,13.2589739 114.258318,12.8944374 114.212071,12.5386667 C114.190912,12.3594211 114.182146,12.1768506 114.165824,11.9954891 C114.136202,11.818964 114.116554,11.6391139 114.09207,11.459566 C114.053682,11.0938204 113.989299,10.7425838 113.917056,10.3871153 C113.866275,10.026206 113.784965,9.66136725 113.692168,9.27929912 C113.317052,7.74921302 112.819517,6.13660746 112.450749,4.36047432 L112.449842,4.35714936 C112.423847,4.23019635 112.505158,4.10596375 112.632111,4.07966634 C112.692262,4.06727331 112.752111,4.07936407 112.801079,4.10868417 C114.381342,5.06506356 115.669008,6.31101672 116.764129,7.80090103 C117.84867,9.3382416 118.618248,11.2325619 118.869433,13.1036076 C119.138453,14.9927893 118.878803,16.8384444 118.600716,18.5689349 C118.303585,20.3036572 117.958999,21.9634167 117.613203,23.5859971 C117.270732,25.2082753 116.954861,26.8009311 116.81491,28.398121 C116.667101,30.0019607 116.682214,31.637841 116.919495,33.2447034 C117.163426,34.8461251 117.604437,36.4466399 118.431143,37.8676068 C119.215531,39.311244 120.435792,40.5221339 121.892729,41.3373536 C121.920537,41.3521648 121.931419,41.3863212 121.916608,41.41413 C121.902401,41.4413342 121.868245,41.4513091 121.840738,41.4383115" id="Fill-7" fill="#0B6A83"></path>
                <path d="M121.288795,43.1740915 C119.740573,43.0469876 118.178446,42.7368595 116.727252,42.0890968 C115.273036,41.4507045 113.951515,40.4979524 112.826772,39.3496321 C111.719863,38.1849894 110.768622,36.8728393 109.948566,35.4799833 C109.539293,34.7838576 109.139996,34.0756412 108.769112,33.3517067 C108.382812,32.6326086 108.024321,31.8974901 107.696963,31.1484673 C107.368095,30.3991423 107.063407,29.6404469 106.809804,28.866638 C106.564663,28.0934337 106.348843,27.3108591 106.155995,26.5276799 C105.768789,24.9661578 105.407275,23.3719906 105.328685,21.8101663 C105.244654,20.3048662 105.306317,18.9095921 105.151555,17.680566 C105.074174,17.0657507 104.965055,16.5014143 104.715381,15.9585391 C104.472054,15.4096184 104.018046,14.8930406 103.330384,14.4085032 L103.320409,14.401551 C103.21401,14.3265883 103.188318,14.1796855 103.26328,14.0732868 C103.294716,14.0288532 103.338545,13.9986263 103.386908,13.9838151 C104.232053,13.7238637 105.266418,13.8193808 106.177457,14.3108703 C107.090611,14.7981281 107.794898,15.6018616 108.293642,16.4191972 C108.799943,17.2452986 109.13516,18.1058586 109.373348,18.9416327 C109.621511,19.7780112 109.776575,20.6044149 109.876323,21.3894077 C110.069171,22.9158666 110.045896,24.4057509 110.138995,25.9074237 C110.234512,27.4030511 110.362674,28.8877969 110.496277,30.3876561 C110.741115,33.3786087 111.655177,36.3677476 113.543754,38.7157739 C114.01741,39.2940146 114.529151,39.845958 115.099231,40.3377498 C115.677169,40.8162417 116.287148,41.2690408 116.95607,41.6284388 C118.279706,42.3729275 119.77352,42.8311674 121.302699,43.0355013 C121.341087,43.0397331 121.368292,43.0741918 121.363758,43.11258 C121.359526,43.1494568 121.325672,43.1763587 121.288795,43.1740915" id="Fill-8" fill="#0B6A83"></path>
                <path d="M121.202648,45.0235251 C118.34953,46.1382935 115.164219,46.6179945 112.013366,46.0303834 C108.873697,45.4122432 105.89544,43.6914253 103.664089,41.0112053 C103.109728,40.3465156 102.624284,39.6249993 102.210175,38.8802082 C101.795764,38.1336036 101.49017,37.3576789 101.186994,36.599588 C100.607544,35.0728269 100.072528,33.6068218 99.7760019,32.1571393 C99.615497,31.4443888 99.5118187,30.6778344 99.4030019,30.0832711 C99.2857215,29.451831 99.131262,28.8355043 98.9384143,28.2424524 C98.5285374,27.068137 98.0189117,25.9742252 96.6033856,25.1357307 L96.5973402,25.1324058 C96.4851984,25.0659066 96.4483216,24.921422 96.5145185,24.8095824 C96.5426295,24.7615216 96.5855517,24.7276675 96.6336125,24.7092291 C97.4572958,24.3969851 98.4596201,24.4432323 99.3670319,24.7875167 C100.280791,25.128174 101.072736,25.7348281 101.714151,26.418863 C103.008468,27.7793761 103.727868,29.5845271 104.171297,31.0233279 C104.641325,32.5361847 104.761024,34.062039 105.039716,35.4733334 C105.168482,36.1824567 105.337753,36.8637712 105.506721,37.5320881 C105.675085,38.2013119 105.861283,38.8605608 106.11398,39.4965349 C106.594588,40.7838989 107.450312,41.9101535 108.527599,42.8550467 C109.600956,43.802358 110.895575,44.495461 112.286919,44.9715348 C115.08442,45.8982918 118.260965,45.8435811 121.160028,44.9053379 C121.192976,44.8941539 121.228643,44.9122901 121.239525,44.9449351 C121.249802,44.9769757 121.233177,45.0111321 121.202648,45.0235251" id="Fill-9" fill="#0B6A83"></path>
                <path d="M121.77303,46.6950731 C120.805164,47.8990109 119.665005,48.9850637 118.352553,49.860435 C117.033451,50.7167633 115.539637,51.3666418 113.953933,51.6537975 C112.371555,51.9699709 110.726002,51.916167 109.128207,51.649868 C108.32659,51.5132423 107.540992,51.3031653 106.759325,51.0664886 C105.982795,50.8174189 105.22017,50.5190793 104.459359,50.2016968 C102.933807,49.5868815 101.329363,48.9203781 100.015097,47.8566932 C98.7105034,46.8002628 97.4666661,45.6283655 96.4516465,44.2763159 C95.5508847,43.093537 94.937883,41.9506576 94.2142508,41.0338755 C93.8521324,40.5774492 93.4863868,40.1708972 92.9873406,39.8266128 C92.4901079,39.4799101 91.8248137,39.2253995 90.9808784,39.074265 L90.9736239,39.0727537 C90.8403233,39.0491767 90.7517584,38.9219214 90.7756377,38.7886207 C90.7841012,38.741769 90.8058646,38.6997536 90.8357892,38.6668063 C91.4394206,38.0039302 92.3447165,37.5387381 93.369711,37.4429188 C94.3941009,37.3392405 95.4562744,37.6079577 96.3422251,38.0435274 C98.12924,38.934919 99.3776113,40.3147773 100.231219,41.6417386 C100.983265,42.8078927 101.746494,43.9861376 102.667206,45.0534498 C103.13663,45.5733526 103.573106,46.1413162 104.050389,46.6835869 C104.518302,47.2379484 105.023393,47.7738715 105.593473,48.2272751 C107.895856,49.9982697 110.875625,50.8932885 113.802194,50.605226 C115.268502,50.4812957 116.709721,50.0257762 118.048168,49.3432526 C119.378152,48.640477 120.599017,47.7016292 121.676908,46.6098333 C121.701694,46.5844427 121.742501,46.5838381 121.767891,46.6086242 C121.791468,46.6318989 121.793282,46.6693803 121.77303,46.6950731" id="Fill-10" fill="#0B6A83"></path>
                <path d="M42.8221589,109.083714 C42.8221589,108.694996 42.8904717,108.30779 43.0270973,107.922094 C43.1637229,107.536399 43.362616,107.191812 43.6240787,106.887729 C43.884937,106.584251 44.2071558,106.336391 44.5898285,106.145357 C44.9725011,105.953718 45.4065595,105.858201 45.8929105,105.858201 C46.4696399,105.858201 46.9632453,105.989083 47.3734245,106.249942 C47.7833013,106.511404 48.0855704,106.851457 48.2799294,107.270402 L47.7787673,107.580228 C47.6753913,107.367733 47.5496473,107.188487 47.4006287,107.042793 C47.2519123,106.896798 47.0923142,106.778308 46.922439,106.687325 C46.7522615,106.596342 46.5760386,106.531052 46.3937704,106.491455 C46.2115021,106.45216 46.0322565,106.43221 45.8563359,106.43221 C45.4673156,106.43221 45.1242402,106.511404 44.8268074,106.669189 C44.5290724,106.827276 44.2784913,107.033725 44.0747619,107.288841 C43.8713348,107.543956 43.7180844,107.830809 43.6147084,108.149703 C43.5116346,108.468597 43.4599466,108.792025 43.4599466,109.119987 C43.4599466,109.478478 43.5222141,109.821855 43.6467489,110.149817 C43.7712838,110.477779 43.9414613,110.767958 44.1569791,111.02005 C44.372497,111.272143 44.6276121,111.472547 44.9223245,111.621263 C45.2170368,111.770282 45.537442,111.84464 45.8835401,111.84464 C46.0658084,111.84464 46.2526107,111.821668 46.443947,111.776327 C46.6352834,111.730685 46.8205743,111.657838 46.9998199,111.557485 C47.1787632,111.457131 47.3444066,111.332899 47.496448,111.18388 C47.6481871,111.035164 47.7757446,110.854407 47.8791206,110.641911 L48.407487,110.915163 C48.304111,111.158187 48.1584173,111.372194 47.9701036,111.557485 C47.78179,111.742775 47.5723175,111.899351 47.3413839,112.026908 C47.1104504,112.154466 46.8662169,112.251494 46.6080791,112.318296 C46.3496391,112.385097 46.0960353,112.418649 45.8472678,112.418649 C45.4035368,112.418649 44.9966826,112.321621 44.6261008,112.126959 C44.2558211,111.9326 43.936625,111.678997 43.6694191,111.366148 C43.4022132,111.0533 43.1939498,110.698134 43.0452334,110.300045 C42.8962148,109.902259 42.8221589,109.496916 42.8221589,109.083714" id="Fill-11" fill="#0B6A83"></path>
                <polyline id="Fill-12" fill="#0B6A83" points="52.6897331 112.363938 52.6897331 105.894776 53.3278231 105.894776 53.3278231 111.798998 57.0635667 111.798998 57.0635667 112.363938 52.6897331 112.363938"></polyline>
                <path d="M64.7626626,109.839992 L63.4595806,106.641682 L62.1386647,109.839992 L64.7626626,109.839992 Z M63.1953974,105.894776 L63.7331341,105.894776 L66.4209108,112.363938 L65.7468507,112.363938 L64.9083563,110.341154 L62.002039,110.341154 L61.1726127,112.363938 L60.4894845,112.363938 L63.1953974,105.894776 L63.1953974,105.894776 Z" id="Fill-13" fill="#0B6A83"></path>
                <path d="M74.2206622,107.106572 C74.038394,106.900122 73.7953696,106.732968 73.4918915,106.60541 C73.1878088,106.477853 72.8417107,106.414074 72.4529926,106.414074 C71.8820063,106.414074 71.4657818,106.521984 71.2046213,106.737502 C70.9434608,106.95302 70.8128806,107.246221 70.8128806,107.616802 C70.8128806,107.811162 70.8479438,107.97076 70.9177679,108.094992 C70.9875921,108.219527 71.0951999,108.327437 71.2411959,108.418722 C71.3868896,108.509705 71.5736919,108.588598 71.8016027,108.655399 C72.0292114,108.722503 72.2979286,108.789304 72.6077544,108.855803 C72.9541548,108.928953 73.2654919,109.010867 73.5417659,109.10185 C73.8183421,109.193136 74.0535074,109.307091 74.2481687,109.443717 C74.4422255,109.580342 74.5909419,109.745986 74.6946201,109.940043 C74.7976939,110.134704 74.8493819,110.377728 74.8493819,110.669116 C74.8493819,110.966851 74.7916485,111.224989 74.6761817,111.443529 C74.5607149,111.662372 74.3999078,111.84464 74.193458,111.990334 C73.986706,112.136028 73.7406589,112.243938 73.4553169,112.313762 C73.1696726,112.383586 72.8568241,112.418649 72.5167714,112.418649 C71.5144471,112.418649 70.6487485,112.105801 69.9199777,111.480104 L70.2388716,110.960805 C70.3543384,111.082318 70.4924753,111.197482 70.6535848,111.306903 C70.8143919,111.416325 70.9936375,111.512144 71.1910192,111.594059 C71.3884009,111.675974 71.5993847,111.739753 71.8242729,111.785395 C72.0488589,111.830736 72.2858378,111.853708 72.5349075,111.853708 C73.0511831,111.853708 73.4538056,111.761214 73.7421703,111.575621 C74.0308372,111.390632 74.1750196,111.109522 74.1750196,110.732894 C74.1750196,110.53249 74.1342133,110.363824 74.0519961,110.227198 C73.9700812,110.090573 73.8470576,109.972083 73.6832278,109.87173 C73.5190957,109.771679 73.3153663,109.68523 73.0726442,109.612081 C72.8296199,109.539234 72.5469983,109.466387 72.2250817,109.39354 C71.885029,109.314648 71.587294,109.232733 71.3321789,109.147493 C71.0770638,109.062556 70.8615459,108.956157 70.685323,108.828599 C70.5091001,108.701042 70.3770086,108.547791 70.2890482,108.368546 C70.2010879,108.1893 70.1569567,107.968946 70.1569567,107.707785 C70.1569567,107.410353 70.2131787,107.144356 70.3256228,106.910702 C70.4377646,106.676746 70.5973627,106.482387 70.8038125,106.327625 C71.0102623,106.172561 71.2532866,106.054071 71.5328855,105.972156 C71.8121822,105.889939 72.1217057,105.849133 72.4620607,105.849133 C72.8933987,105.849133 73.2775827,105.914423 73.6146127,106.045003 C73.951945,106.175583 74.2569345,106.359363 74.530488,106.596342 L74.2206622,107.106572" id="Fill-14" fill="#0B6A83"></path>
                <path d="M82.9405208,107.106572 C82.7582525,106.900122 82.5152282,106.732968 82.2114477,106.60541 C81.9076673,106.477853 81.5612669,106.414074 81.1728512,106.414074 C80.6018649,106.414074 80.1856403,106.521984 79.9244798,106.737502 C79.6633193,106.95302 79.5327391,107.246221 79.5327391,107.616802 C79.5327391,107.811162 79.5675,107.97076 79.6376265,108.094992 C79.7071484,108.219527 79.8150584,108.327437 79.9610544,108.418722 C80.1067481,108.509705 80.2935504,108.588598 80.5214613,108.655399 C80.7490699,108.722503 81.0177871,108.789304 81.3276129,108.855803 C81.6740133,108.928953 81.9850482,109.010867 82.2616244,109.10185 C82.5378983,109.193136 82.773366,109.307091 82.967725,109.443717 C83.162084,109.580342 83.3108004,109.745986 83.4141764,109.940043 C83.5175524,110.134704 83.5692405,110.377728 83.5692405,110.669116 C83.5692405,110.966851 83.5115071,111.224989 83.3960403,111.443529 C83.2805735,111.662372 83.1194641,111.84464 82.9130143,111.990334 C82.7065645,112.136028 82.4605175,112.243938 82.1751754,112.313762 C81.8895312,112.383586 81.5766827,112.418649 81.2366299,112.418649 C80.2343056,112.418649 79.368607,112.105801 78.6398362,111.480104 L78.9587301,110.960805 C79.0738946,111.082318 79.2123339,111.197482 79.373141,111.306903 C79.5339482,111.416325 79.713496,111.512144 79.9108777,111.594059 C80.1082594,111.675974 80.3192433,111.739753 80.5441315,111.785395 C80.7687174,111.830736 81.0056964,111.853708 81.2547661,111.853708 C81.7710417,111.853708 82.1733618,111.761214 82.4620288,111.575621 C82.7506958,111.390632 82.8948781,111.109522 82.8948781,110.732894 C82.8948781,110.53249 82.8537695,110.363824 82.7718546,110.227198 C82.6899397,110.090573 82.5669162,109.972083 82.4027841,109.87173 C82.2389542,109.771679 82.0352249,109.68523 81.7925028,109.612081 C81.5491762,109.539234 81.2668568,109.466387 80.9449403,109.39354 C80.6045853,109.314648 80.3071525,109.232733 80.0520374,109.147493 C79.7969223,109.062556 79.5811022,108.956157 79.4051816,108.828599 C79.2289587,108.701042 79.0968671,108.547791 79.0089068,108.368546 C78.9206442,108.1893 78.8768152,107.968946 78.8768152,107.707785 C78.8768152,107.410353 78.932735,107.144356 79.0451791,106.910702 C79.1576232,106.676746 79.316919,106.482387 79.523671,106.327625 C79.7301208,106.172561 79.9731452,106.054071 80.2524418,105.972156 C80.5317384,105.889939 80.8415642,105.849133 81.1819192,105.849133 C81.6129549,105.849133 81.9974412,105.914423 82.3344712,106.045003 C82.6715013,106.175583 82.976793,106.359363 83.2500443,106.596342 L82.9405208,107.106572" id="Fill-15" fill="#0B6A83"></path>
                <polygon id="Fill-16" fill="#0B6A83" points="87.8786908 112.363938 88.5167808 112.363938 88.5167808 105.894776 87.8786908 105.894776"></polygon>
                <path d="M92.8993803,109.083714 C92.8993803,108.694996 92.9676931,108.30779 93.1043187,107.922094 C93.2409443,107.536399 93.4398374,107.191812 93.7013001,106.887729 C93.9621584,106.584251 94.2843772,106.336391 94.6667476,106.145357 C95.0497225,105.953718 95.4837809,105.858201 95.9698296,105.858201 C96.5468613,105.858201 97.0404667,105.989083 97.4506459,106.249942 C97.8605227,106.511404 98.1627918,106.851457 98.3571508,107.270402 L97.8559887,107.580228 C97.7526127,107.367733 97.6265665,107.188487 97.4778501,107.042793 C97.3291337,106.896798 97.1695356,106.778308 96.9996604,106.687325 C96.8294829,106.596342 96.65326,106.531052 96.4709918,106.491455 C96.2887235,106.45216 96.1094779,106.43221 95.9335573,106.43221 C95.544537,106.43221 95.2014616,106.511404 94.9040288,106.669189 C94.6062938,106.827276 94.3557127,107.033725 94.1519834,107.288841 C93.9485563,107.543956 93.7953058,107.830809 93.6919298,108.149703 C93.588856,108.468597 93.537168,108.792025 93.537168,109.119987 C93.537168,109.478478 93.5994355,109.821855 93.7239703,110.149817 C93.8482029,110.477779 94.0183804,110.767958 94.2342005,111.02005 C94.4497184,111.272143 94.7048335,111.472547 94.9995459,111.621263 C95.2942582,111.770282 95.6146634,111.84464 95.9607615,111.84464 C96.1430298,111.84464 96.3298321,111.821668 96.5211684,111.776327 C96.7125048,111.730685 96.8977957,111.657838 97.0770413,111.557485 C97.2559846,111.457131 97.421628,111.332899 97.5736694,111.18388 C97.7254085,111.035164 97.852966,110.854407 97.956342,110.641911 L98.4847084,110.915163 C98.3813324,111.158187 98.2356387,111.372194 98.047325,111.557485 C97.8590114,111.742775 97.6495389,111.899351 97.4186053,112.026908 C97.1876718,112.154466 96.9434383,112.251494 96.6853005,112.318296 C96.4268605,112.385097 96.1732567,112.418649 95.9244893,112.418649 C95.4807582,112.418649 95.0739041,112.321621 94.7033222,112.126959 C94.3327403,111.9326 94.0138464,111.678997 93.7466405,111.366148 C93.4794346,111.0533 93.2711712,110.698134 93.1224549,110.300045 C92.9734362,109.902259 92.8993803,109.496916 92.8993803,109.083714" id="Fill-17" fill="#0B6A83"></path>
                <path d="M106.247885,109.839992 L104.944803,106.641682 L103.623585,109.839992 L106.247885,109.839992 Z M104.68062,105.894776 L105.218357,105.894776 L107.906133,112.363938 L107.231771,112.363938 L106.393579,110.341154 L103.486959,110.341154 L102.657835,112.363938 L101.974405,112.363938 L104.68062,105.894776 L104.68062,105.894776 Z" id="Fill-18" fill="#0B6A83"></path>
                <polyline id="Fill-19" fill="#0B6A83" points="112.024247 112.363938 112.024247 105.894776 112.662338 105.894776 112.662338 111.798998 116.397779 111.798998 116.397779 112.363938 112.024247 112.363938"></polyline>
                <polyline id="Fill-20" fill="#0B6A83" points="120.525565 112.363938 120.525565 105.894776 121.163353 105.894776 121.163353 111.798998 124.899097 111.798998 124.899097 112.363938 120.525565 112.363938"></polyline>
                <polyline id="Fill-21" fill="#0B6A83" points="127.960478 105.894776 130.074548 109.375404 132.206754 105.894776 132.899253 105.894776 130.393442 109.958481 130.393442 112.363938 129.755654 112.363938 129.755654 109.940043 127.259214 105.894776 127.960478 105.894776"></polyline>
                <path d="M141.819213,109.083714 C141.819213,108.694996 141.887526,108.30779 142.024152,107.922094 C142.160777,107.536399 142.35967,107.191812 142.621133,106.887729 C142.882294,106.584251 143.20421,106.336391 143.586883,106.145357 C143.969556,105.953718 144.403614,105.858201 144.889965,105.858201 C145.466694,105.858201 145.9603,105.989083 146.370479,106.249942 C146.780658,106.511404 147.082625,106.851457 147.276984,107.270402 L146.775822,107.580228 C146.672446,107.367733 146.546702,107.188487 146.397985,107.042793 C146.248967,106.896798 146.089369,106.778308 145.919493,106.687325 C145.749316,106.596342 145.573093,106.531052 145.390825,106.491455 C145.208557,106.45216 145.029613,106.43221 144.85339,106.43221 C144.464672,106.43221 144.121295,106.511404 143.823862,106.669189 C143.526127,106.827276 143.275546,107.033725 143.072119,107.288841 C142.868389,107.543956 142.715139,107.830809 142.612065,108.149703 C142.508689,108.468597 142.457001,108.792025 142.457001,109.119987 C142.457001,109.478478 142.519269,109.821855 142.643803,110.149817 C142.768338,110.477779 142.938516,110.767958 143.154034,111.02005 C143.369551,111.272143 143.624667,111.472547 143.919379,111.621263 C144.214091,111.770282 144.534497,111.84464 144.880595,111.84464 C145.062863,111.84464 145.249665,111.821668 145.441002,111.776327 C145.632338,111.730685 145.817629,111.657838 145.996874,111.557485 C146.17612,111.457131 146.341461,111.332899 146.493502,111.18388 C146.645242,111.035164 146.772799,110.854407 146.876175,110.641911 L147.404541,110.915163 C147.301165,111.158187 147.155472,111.372194 146.967158,111.557485 C146.778844,111.742775 146.569372,111.899351 146.338438,112.026908 C146.107807,112.154466 145.863271,112.251494 145.605134,112.318296 C145.346694,112.385097 145.093392,112.418649 144.844322,112.418649 C144.400894,112.418649 143.993737,112.321621 143.623155,112.126959 C143.252876,111.9326 142.933982,111.678997 142.666474,111.366148 C142.399268,111.0533 142.191307,110.698134 142.042288,110.300045 C141.893572,109.902259 141.819213,109.496916 141.819213,109.083714" id="Fill-22" fill="#0B6A83"></path>
                <path d="M154.311088,111.83527 C154.717942,111.83527 155.056786,111.757889 155.327316,111.603127 C155.597243,111.448365 155.813063,111.244636 155.974172,110.992544 C156.134979,110.740753 156.247424,110.453598 156.311202,110.131681 C156.374981,109.809765 156.406719,109.484523 156.406719,109.156561 L156.406719,105.894776 L157.044809,105.894776 L157.044809,109.156561 C157.044809,109.593945 156.996144,110.008355 156.898813,110.400398 C156.801483,110.792139 156.64521,111.137028 156.429692,111.434461 C156.213872,111.732196 155.933064,111.969175 155.586663,112.145096 C155.240565,112.321621 154.818295,112.409581 154.320156,112.409581 C153.809926,112.409581 153.380401,112.317087 153.030978,112.131494 C152.681555,111.946505 152.400747,111.701969 152.188252,111.398189 C151.975455,111.094408 151.823715,110.74831 151.73243,110.35929 C151.641447,109.970572 151.595805,109.569763 151.595805,109.156561 L151.595805,105.894776 L152.224524,105.894776 L152.224524,109.156561 C152.224524,109.496916 152.258076,109.827901 152.324878,110.149817 C152.391679,110.471734 152.505635,110.757076 152.666442,111.006146 C152.827551,111.255518 153.041558,111.455922 153.308764,111.607661 C153.576272,111.7594 153.910279,111.83527 154.311088,111.83527" id="Fill-23" fill="#0B6A83"></path>
                <path d="M162.393159,109.411676 L164.506926,109.411676 C164.69524,109.411676 164.866929,109.37087 165.021691,109.288653 C165.176755,109.206738 165.308846,109.095805 165.418268,108.956157 C165.527689,108.816508 165.612627,108.658724 165.673383,108.482501 C165.733836,108.306278 165.764366,108.120987 165.764366,107.926628 C165.764366,107.732269 165.729605,107.545467 165.659781,107.366221 C165.589654,107.186976 165.495648,107.030703 165.377159,106.896798 C165.258669,106.763497 165.119021,106.657098 164.957912,106.577904 C164.797105,106.499314 164.628438,106.459716 164.452216,106.459716 L162.393159,106.459716 L162.393159,109.411676 Z M161.755371,112.363938 L161.755371,105.894776 L164.48879,105.894776 C164.768087,105.894776 165.025015,105.953718 165.258669,106.072207 C165.492323,106.190697 165.694541,106.345761 165.864719,106.537097 C166.034594,106.728434 166.166686,106.945765 166.260994,107.188487 C166.354999,107.431512 166.402153,107.677559 166.402153,107.926628 C166.402153,108.163305 166.36709,108.389705 166.297266,108.605222 C166.227744,108.821043 166.130414,109.015402 166.005879,109.188602 C165.881344,109.3615 165.730814,109.507496 165.554893,109.625985 C165.37867,109.744172 165.181289,109.824878 164.962446,109.867498 L166.548149,112.363938 L165.828144,112.363938 L164.306522,109.976617 L162.393159,109.976617 L162.393159,112.363938 L161.755371,112.363938 L161.755371,112.363938 Z" id="Fill-24" fill="#0B6A83"></path>
                <path d="M171.531962,109.411676 L173.646032,109.411676 C173.834346,109.411676 174.005732,109.37087 174.160796,109.288653 C174.315558,109.206738 174.44765,109.095805 174.557071,108.956157 C174.666492,108.816508 174.75143,108.658724 174.812186,108.482501 C174.872942,108.306278 174.903471,108.120987 174.903471,107.926628 C174.903471,107.732269 174.868408,107.545467 174.798584,107.366221 C174.72876,107.186976 174.634754,107.030703 174.515962,106.896798 C174.397775,106.763497 174.257825,106.657098 174.097017,106.577904 C173.935908,106.499314 173.767242,106.459716 173.591321,106.459716 L171.531962,106.459716 L171.531962,109.411676 Z M170.894174,112.363938 L170.894174,105.894776 L173.627594,105.894776 C173.907193,105.894776 174.163819,105.953718 174.397775,106.072207 C174.631429,106.190697 174.833345,106.345761 175.003522,106.537097 C175.1737,106.728434 175.305792,106.945765 175.399797,107.188487 C175.494105,107.431512 175.541259,107.677559 175.541259,107.926628 C175.541259,108.163305 175.506196,108.389705 175.436372,108.605222 C175.366548,108.821043 175.269217,109.015402 175.144984,109.188602 C175.020147,109.3615 174.86992,109.507496 174.693697,109.625985 C174.517474,109.744172 174.320092,109.824878 174.101552,109.867498 L175.686953,112.363938 L174.96725,112.363938 L173.445325,109.976617 L171.531962,109.976617 L171.531962,112.363938 L170.894174,112.363938 L170.894174,112.363938 Z" id="Fill-25" fill="#0B6A83"></path>
                <polyline id="Fill-26" fill="#0B6A83" points="184.379305 111.798998 184.379305 112.363938 180.032978 112.363938 180.032978 105.894776 184.29739 105.894776 184.29739 106.459716 180.671068 106.459716 180.671068 108.792025 183.832802 108.792025 183.832802 109.329761 180.671068 109.329761 180.671068 111.798998 184.379305 111.798998"></polyline>
                <polyline id="Fill-27" fill="#0B6A83" points="189.409062 107.079066 189.409062 112.363938 188.771275 112.363938 188.771275 105.894776 189.263369 105.894776 193.545615 111.279699 193.545615 105.903844 194.183403 105.903844 194.183403 112.363938 193.62753 112.363938 189.409062 107.079066"></polyline>
                <polyline id="Fill-28" fill="#0B6A83" points="203.586692 106.459716 201.281285 106.459716 201.281285 112.363938 200.643498 112.363938 200.643498 106.459716 198.338091 106.459716 198.338091 105.894776 203.586692 105.894776 203.586692 106.459716"></polyline>
                <path d="M0.702171082,89.2911347 C2.16998975,92.0995168 4.27620073,92.5462705 6.15903485,92.5462705 C8.77577831,92.5462705 10.78617,90.950592 10.78617,88.5251849 C10.78617,82.4302311 0.702171082,84.0576478 0.702171082,76.8772457 C0.702171082,73.3669948 3.8932258,71.57998 6.63752681,71.57998 C8.36106513,71.57998 10.4031951,72.1542913 11.4883411,73.143618 L10.690653,74.8988946 C9.4779494,72.7286025 7.8822709,72.5372662 6.54200978,72.5372662 C4.56335636,72.5372662 2.55296468,73.5265929 2.55296468,75.8882213 C2.55296468,82.0152156 12.7648234,80.1961603 12.7648234,87.3765623 C12.7648234,91.2697882 9.66928573,93.5355972 6.22281363,93.5355972 C3.57402965,93.5355972 1.69119552,92.7696473 3.46389584e-14,91.3335669 L0.702171082,89.2911347" id="Fill-29" fill="#009A78"></path>
                <path d="M36.8910349,82.6853462 C36.8910349,77.8027937 34.306332,72.5693067 28.2748547,72.5693067 C22.2754179,72.5693067 19.5945934,77.99413 19.5945934,82.8769848 C19.5945934,88.5251849 23.3602616,92.6420898 28.2748547,92.674003 C33.2211859,92.7058686 36.8910349,88.3338485 36.8910349,82.6853462 Z M28.3386334,93.5673355 C21.9562217,93.5673355 16.8820306,89.8337077 16.8820306,82.8769848 C16.8820306,76.8455075 21.4136487,71.57998 28.3065929,71.57998 C35.1677988,71.57998 39.6035977,76.6538689 39.6035977,82.6853462 C39.6035977,89.6103309 34.6893069,93.5673355 28.3386334,93.5673355 L28.3386334,93.5673355 Z" id="Fill-30" fill="#009A78"></path>
                <path d="M56.1673389,93.2801798 C55.241791,91.7165419 52.1462533,86.5147932 50.4550578,83.5788536 C49.848706,83.6108941 48.8911175,83.7064111 48.1892487,83.5788536 L48.4443638,83.3237385 C52.3378919,83.3237385 54.6674797,80.7387333 54.6674797,77.7069744 C54.6674797,75.0581904 52.5612687,72.3456276 47.5828969,72.7286025 L47.4232989,72.9202411 C47.4232989,79.0472355 47.4232989,87.0573662 47.4232989,93.2801798 L44.998194,93.2801798 C44.998194,91.3973457 45.0619728,75.1222714 44.998194,71.8033569 C45.8276204,71.8033569 49.6891079,71.8033569 49.6891079,71.8033569 C54.6354392,71.8033569 56.9329865,74.6434772 56.9329865,77.4835975 C56.9329865,80.4195371 55.4651678,82.4302311 52.8163838,83.2596574 C54.1886855,85.8446626 56.7416502,89.8016672 58.9754187,93.2801798 L56.1673389,93.2801798" id="Fill-31" fill="#009A78"></path>
                <path d="M63.5717224,93.2801798 C63.5717224,91.3973457 63.5717224,75.1222714 63.5717224,71.8033569 L74.3578924,71.8033569 L74.7411696,72.8244218 C73.2092699,72.6330855 65.9333507,72.6648238 65.9333507,72.6648238 C65.9333507,72.6648238 65.9333507,82.0152156 65.9333507,81.9834774 C67.5290292,81.9834774 71.5498126,82.0152156 73.4006062,81.7918388 L73.4006062,82.9725018 C71.5498126,82.8129037 68.9648074,82.7811655 65.9013102,82.8449442 L65.9333507,92.3866724 C65.9333507,92.3866724 74.6773908,92.4824917 76.272767,92.1953361 L75.8897921,93.2801798 L63.5717224,93.2801798" id="Fill-32" fill="#009A78"></path>
                <path d="M81.8257524,93.2801798 C81.8257524,91.3973457 81.8898334,75.1222714 81.8257524,71.8033569 C82.6557833,71.8033569 84.2511595,71.8033569 84.2511595,71.8033569 L84.2832,92.3866724 C84.2832,92.3866724 93.0592806,92.4824917 94.6226163,92.1953361 L94.2399437,93.2801798 L81.8257524,93.2801798" id="Fill-33" fill="#009A78"></path>
                <path d="M98.9000261,93.2801798 C98.9000261,91.3973457 98.9638049,75.1222714 98.9000261,71.8033569 C99.7294525,71.8033569 101.325131,71.8033569 101.325131,71.8033569 L101.357172,92.3866724 C101.357172,92.3866724 110.13295,92.4824917 111.696588,92.1953361 L111.313915,93.2801798 L98.9000261,93.2801798" id="Fill-34" fill="#009A78"></path>
                <path d="M126.855685,84.8235977 C125.164187,80.6111757 122.994197,75.249829 122.994197,75.249829 L122.994197,74.866854 L119.037192,84.8235977 L126.855685,84.8235977 Z M130.11082,93.2801798 C129.376609,91.2060094 128.259725,88.301808 127.23866,85.7488433 L118.685956,85.7488433 L115.55868,93.2801798 C114.728951,93.2801798 114.633434,93.2801798 114.633434,93.2801798 L123.632589,71.4841607 L123.919745,71.4841607 C123.919745,71.4841607 124.366499,72.8882006 124.717433,73.7499698 C127.493775,80.6749545 131.546901,90.2484209 132.855121,93.2801798 L130.11082,93.2801798 L130.11082,93.2801798 Z" id="Fill-35" fill="#009A78"></path>
                <path d="M163.332611,83.9618285 L165.758018,83.9618285 L165.789756,91.9081805 C163.715586,92.7696473 160.109516,93.599376 157.875747,93.599376 C152.323064,93.599376 146.514964,89.9933058 146.514964,82.8769848 C146.514964,76.8455075 150.727386,71.57998 157.62033,71.57998 C160.747606,71.57998 163.173013,72.2818488 165.662199,74.1329447 L164.896249,76.1753769 C162.917595,73.1115775 160.683827,72.5693067 158.130862,72.5693067 C152.099385,72.5693067 149.227224,77.99413 149.227224,82.8769848 C149.227224,88.9719386 153.24831,92.7376068 158.641395,92.7376068 C160.077475,92.7376068 161.801013,92.131255 163.332611,91.4293862 L163.332611,83.9618285" id="Fill-36" fill="#009A78"></path>
                <path d="M172.300632,93.2801798 C172.300632,91.3973457 172.364411,75.1222714 172.300632,71.8033569 C173.130059,71.8033569 174.725737,71.8033569 174.725737,71.8033569 L174.757778,92.3866724 C174.757778,92.3866724 183.533556,92.4824917 185.097194,92.1953361 L184.714521,93.2801798 L172.300632,93.2801798" id="Fill-37" fill="#009A78"></path>
                <path d="M190.650784,93.2801798 C190.650784,91.3973457 190.650784,75.1222714 190.650784,71.8033569 L201.436954,71.8033569 L201.819929,72.8244218 C200.288331,72.6330855 193.01211,72.6648238 193.01211,72.6648238 C193.01211,72.6648238 193.01211,82.0152156 193.01211,81.9834774 C194.607788,81.9834774 198.628572,82.0152156 200.479668,81.7918388 L200.479668,82.9725018 C198.628572,82.8129037 196.043869,82.7811655 192.980069,82.8449442 L193.01211,92.3866724 C193.01211,92.3866724 201.75615,92.4824917 203.351829,92.1953361 L202.968854,93.2801798 L190.650784,93.2801798" id="Fill-38" fill="#009A78"></path>
                <path d="M224.031568,89.5145116 C224.031568,87.6316775 224.031568,75.1222714 223.967789,71.8033569 L224.988854,71.8033569 C224.988854,77.9303512 224.861297,87.5361604 225.020895,93.6631548 C222.723347,91.1419283 209.064714,74.6434772 209.064714,74.6434772 L209.288393,75.3456483 C209.288393,81.5046831 209.288393,87.0573662 209.288393,93.2801798 L208.267026,93.2801798 C208.267026,91.5569438 208.299067,78.058211 208.267026,73.4307736 L208.075387,71.8033569 L209.447689,71.8033569 C210.756212,73.5903717 223.808191,88.9719386 223.808191,88.9719386 L224.031568,89.5145116" id="Fill-39" fill="#009A78"></path>
                <path d="M247.168755,89.5145116 C247.168755,87.6316775 247.168755,75.1222714 247.104976,71.8033569 L248.126041,71.8033569 C248.126041,77.9303512 247.998484,87.5361604 248.158082,93.6631548 C245.860534,91.1419283 232.201901,74.6434772 232.201901,74.6434772 L232.425278,75.3456483 C232.425278,81.5046831 232.425278,87.0573662 232.425278,93.2801798 L231.404213,93.2801798 C231.404213,91.5569438 231.436254,78.058211 231.404213,73.4307736 L231.212575,71.8033569 L232.584876,71.8033569 C233.893399,73.5903717 246.945378,88.9719386 246.945378,88.9719386 L247.168755,89.5145116" id="Fill-40" fill="#009A78"></path>
            </g>
        </g>
    </g>
</svg>