<?xml version="1.0" encoding="UTF-8"?>
<svg width="157px" height="197px" viewBox="0 0 157 197" version="1.1" xmlns="http://www.w3.org/2000/svg" xmlns:xlink="http://www.w3.org/1999/xlink">
    <!-- Generator: Sketch 61 (89581) - https://sketch.com -->
    <title>SorellaGlenn_Logo_Badge_Coral</title>
    <desc>Created with Sketch.</desc>
    <g id="Symbols" stroke="none" stroke-width="1" fill="none" fill-rule="evenodd">
        <g id="Footer" transform="translate(-58.000000, -66.000000)" fill="#E98A66">
            <g id="SorellaGlenn_Logo_Badge_Coral">
                <g transform="translate(58.000000, 66.000000)">
                    <path d="M78.4595,7.222 C39.3255,7.222 7.4885,48.2095 7.4885,98.5905 C7.4885,148.972 39.3255,189.959 78.4595,189.959 C117.5935,189.959 149.431,148.972 149.431,98.5905 C149.431,48.2095 117.5935,7.222 78.4595,7.222 Z M78.4595,191.9815 C38.211,191.9815 5.4665,150.0865 5.4665,98.5905 C5.4665,47.095 38.211,5.2 78.4595,5.2 C118.7085,5.2 151.453,47.095 151.453,98.5905 C151.453,150.0865 118.7085,191.9815 78.4595,191.9815 L78.4595,191.9815 Z" id="Fill-1"></path>
                    <path d="M78.4595,1.548 C36.1975,1.548 1.814,45.081 1.814,98.5905 C1.814,152.1 36.1975,195.6335 78.4595,195.6335 C120.722,195.6335 155.1055,152.1 155.1055,98.5905 C155.1055,45.081 120.722,1.548 78.4595,1.548 Z M78.4595,196.981 C35.454,196.981 0.4665,152.8435 0.4665,98.5905 C0.4665,44.338 35.454,0.1995 78.4595,0.1995 C121.4655,0.1995 156.453,44.338 156.453,98.5905 C156.453,152.8435 121.4655,196.981 78.4595,196.981 L78.4595,196.981 Z" id="Fill-2"></path>
                    <path d="M124.373,96.969 C123.7205,65.3125 103.2845,39.815 78.2585,39.815 C53.2055,39.815 32.7535,65.365 32.141,97.067 C32.132,97.5535 32.1235,97.313 32.1235,97.802 C32.1235,98.5375 32.2825,96.887 32.304,97.621 C32.744,97.525 33.1935,98.6145 33.6435,98.6705 C33.623,97.957 33.4745,99.2455 33.4745,98.5305 C33.4745,98.2355 33.4765,97.9415 33.48,97.648 C33.8495,66.421 53.7945,41.1635 78.2585,41.1635 C102.9515,41.1635 123.0415,66.898 123.0415,98.5305 L124.373,96.969" id="Fill-3"></path>
                    <path d="M126.1615,54.149 C129.4735,58.076 132.099,62.579 134.098,67.3345 C135.169,69.6915 135.9305,72.164 136.714,74.6295 C137.0675,75.8725 137.3925,77.1255 137.665,78.389 C137.962,79.6485 138.2185,80.9155 138.4495,82.188 C138.858,84.742 139.1615,87.311 139.3315,89.888 C139.3765,91.1795 139.445,92.4675 139.4345,93.758 L139.438,95.691 L139.3345,97.6225 C139.082,102.7625 138.2245,107.879 136.556,112.741 L136.5485,112.764 C136.5245,112.8335 136.4485,112.8705 136.3785,112.847 C136.317,112.826 136.281,112.7645 136.2895,112.702 C136.9885,107.717 137.313,102.6775 137.2095,97.647 C137.121,92.618 136.6815,87.5915 135.7945,82.642 C134.9685,77.6835 133.7545,72.786 132.0995,68.035 C130.477,63.2725 128.386,58.674 125.9275,54.283 C125.8915,54.2185 125.9145,54.137 125.979,54.1005 C126.036,54.069 126.1065,54.083 126.147,54.1315 L126.1615,54.149" id="Fill-4"></path>
                    <path d="M78.54,157.246 C65.991,157.246 54.2585,150.95 45.5025,139.517 C45.2755,139.221 45.3315,138.7985 45.6275,138.5725 C45.9235,138.347 46.345,138.4015 46.572,138.6975 C55.0675,149.7895 66.4205,155.8975 78.54,155.8975 C90.1995,155.8975 101.2425,150.1835 109.6345,139.808 C109.868,139.5185 113.526,136.1915 113.815,136.4255 C114.104,136.6595 110.9165,140.366 110.682,140.655 C102.0295,151.3535 90.6145,157.246 78.54,157.246" id="Fill-5"></path>
                    <path d="M43.2425,42.7975 C44.4335,43.203 45.6605,43.191 46.5905,42.2625 C47.3285,41.5245 47.5085,40.4885 46.7225,39.702 C44.746,37.7235 41.7305,41.7125 39.0165,38.9945 C37.7545,37.732 38.053,35.767 39.245,34.5765 C39.9365,33.886 40.961,33.3145 41.9615,33.243 L42.5445,34.828 C41.651,34.5535 40.651,34.6485 39.971,35.327 C39.375,35.9225 39.434,36.7675 40.0175,37.3515 C41.9935,39.3295 44.927,35.282 47.629,37.987 C49.0695,39.429 48.77,41.632 47.3875,43.0135 C46.4225,43.9775 45.386,44.394 44.0395,44.5005 L43.2425,42.7975" id="Fill-6"></path>
                    <path d="M57.6365,28.208 C56.3815,26.0925 54.2295,24.6445 51.8525,26.0545 C49.4605,27.4725 49.721,30.16 50.968,32.261 C52.1715,34.2905 54.5115,35.6265 56.7435,34.3025 C58.9905,32.97 58.823,30.209 57.6365,28.208 Z M57.291,35.193 C54.2905,36.9715 50.888,36.521 49.0315,33.39 C47.2605,30.4035 48.3595,26.8715 51.3025,25.1265 C54.23,23.3905 57.776,24.05 59.564,27.0655 C61.3865,30.1385 60.2915,33.413 57.291,35.193 L57.291,35.193 Z" id="Fill-7"></path>
                    <path d="M71.182,29.683 C69.775,28.259 68.372,26.852 66.977,25.408 C66.732,25.4685 66.487,25.5285 66.2375,25.572 L66.4195,25.0425 C67.875,24.685 68.542,23.516 68.189,22.0765 C67.852,20.7025 66.674,20.142 65.349,20.467 C65.153,20.5155 64.9565,20.563 64.764,20.6275 L67.2235,30.6535 L65.2285,31.1435 L62.508,20.123 L65.5825,19.369 C67.4475,18.9115 69.5935,19.3915 70.107,21.485 C70.4405,22.8415 69.908,23.926 68.7495,24.6435 C70.2905,26.1905 71.955,27.6025 73.521,29.109 L71.182,29.683" id="Fill-8"></path>
                    <path d="M76.504,28.9785 L76.7995,17.624 L82.7975,17.7795 L83.222,18.938 C82.316,18.779 81.389,18.755 80.4625,18.7315 L78.845,18.689 L78.7385,22.799 L79.547,22.8205 C80.4565,22.8445 81.3845,22.835 82.2975,22.7405 L82.2315,23.9695 C81.3735,23.88 80.515,23.824 79.657,23.801 C79.3365,23.7925 79.0155,23.802 78.6955,23.81 L78.5855,28.022 L80.6075,28.0745 C81.652,28.101 82.713,28.129 83.7455,27.97 L83.2935,29.1555 L76.504,28.9785" id="Fill-9"></path>
                    <path d="M87.165,29.806 L90.362,18.9075 L92.399,19.505 L89.487,29.4335 L91.233,29.9455 C92.2835,30.254 93.379,30.5925 94.487,30.7075 L93.7455,31.736 L87.165,29.806" id="Fill-10"></path>
                    <path d="M96.6955,33.061 L102.3015,23.193 L104.146,24.2405 L99.0395,33.231 L100.6205,34.129 C101.5725,34.67 102.5595,35.2495 103.6115,35.6145 L102.6545,36.446 L96.6955,33.061" id="Fill-11"></path>
                    <path d="M113.935,34.9095 L110.466,36.515 L112.614,38.511 L113.935,34.9095 Z M110.7535,43.3595 C111.2695,42.1595 111.7135,40.9395 112.169,39.707 L109.3175,37.0585 L105.693,38.658 L104.792,37.821 L116.136,32.8375 L116.654,33.3195 C115.9485,34.895 115.4375,36.5345 114.877,38.1525 C114.0545,40.424 113.2685,42.706 112.4935,44.9755 L110.7535,43.3595 L110.7535,43.3595 Z" id="Fill-12"></path>
                    <path d="M56.345,168.441 L57.9755,169.423 L55.6465,173.2895 C54.37,173.19 52.592,172.5515 51.51,171.899 C48.667,170.1875 47.5405,166.737 49.3045,163.8075 C51.0595,160.893 54.6025,160.0375 57.517,161.793 C58.9745,162.6705 59.8275,163.735 60.484,165.2905 L59.067,166.4035 C59.225,164.867 58.476,163.629 57.1625,162.838 C54.811,161.4225 52.4915,162.8565 51.223,164.963 C49.8595,167.229 49.9245,169.765 52.3485,171.225 C52.8825,171.5465 53.691,171.836 54.329,171.7885 L56.345,168.441" id="Fill-13"></path>
                    <path d="M61.846,176.5165 L64.828,165.564 L66.8755,166.122 L64.1585,176.099 L65.914,176.577 C66.97,176.8645 68.071,177.1815 69.18,177.274 L68.46,178.3175 L61.846,176.5165" id="Fill-14"></path>
                    <path d="M75.0355,179.14 L75.2595,167.7845 L81.257,167.9025 L81.6895,169.0575 C80.782,168.9055 79.8555,168.8865 78.929,168.869 L77.3115,168.836 L77.2305,172.947 L78.039,172.963 C78.949,172.9805 79.8765,172.9655 80.788,172.866 L80.7305,174.095 C79.8725,174.0105 79.0135,173.9595 78.155,173.9425 C77.8345,173.9365 77.514,173.947 77.1935,173.9575 L77.111,178.1695 L79.1325,178.2095 C80.177,178.23 81.2385,178.251 82.2695,178.085 L81.8245,179.273 L75.0355,179.14" id="Fill-15"></path>
                    <path d="M93.4655,165.2805 L94.454,164.9995 L97.725,176.4715 C96.308,175.6125 94.886,174.7375 93.4765,173.8415 C91.3825,172.509 89.209,171.268 87.1615,169.8525 L89.529,178.201 L88.5565,178.4765 C87.7655,175.688 86.9955,172.912 86.205,170.1235 C85.9615,169.265 85.7015,168.4105 85.3445,167.5835 L86.7545,167.183 C87.8685,168.0235 89.061,168.7705 90.21,169.549 C91.9645,170.7325 93.8555,171.72 95.6305,172.915 L93.4655,165.2805" id="Fill-16"></path>
                    <path d="M104.865,158.87 L105.7285,158.3115 L112.2145,168.321 C110.608,167.9145 108.9925,167.494 107.3825,167.05 C104.99,166.39 102.5495,165.8405 100.1775,165.0865 L104.8855,172.3735 L104.036,172.922 C102.464,170.4885 100.9145,168.06 99.3425,165.6255 C98.8585,164.8755 98.3595,164.135 97.7765,163.449 L99.007,162.6535 C100.318,163.1305 101.6775,163.496 103.003,163.9025 C105.0265,164.521 107.124,164.9115 109.1705,165.534 L104.865,158.87" id="Fill-17"></path>
                    <path d="M119.033,157.0265 C119.033,158.1285 118.1395,159.022 117.0375,159.022 C115.9355,159.022 115.042,158.1285 115.042,157.0265 C115.042,155.924 115.9355,155.0305 117.0375,155.0305 C118.1395,155.0305 119.033,155.924 119.033,157.0265" id="Fill-18"></path>
                    <path d="M43.0855,157.0265 C43.0855,158.1285 42.192,159.022 41.09,159.022 C39.988,159.022 39.0945,158.1285 39.0945,157.0265 C39.0945,155.924 39.988,155.0305 41.09,155.0305 C42.192,155.0305 43.0855,155.924 43.0855,157.0265" id="Fill-19"></path>
                    <path d="M122.8325,47.675 C122.8325,48.777 121.939,49.6705 120.837,49.6705 C119.7345,49.6705 118.841,48.777 118.841,47.675 C118.841,46.5725 119.7345,45.679 120.837,45.679 C121.939,45.679 122.8325,46.5725 122.8325,47.675" id="Fill-20"></path>
                    <path d="M36.321,48.349 C36.321,49.451 35.4275,50.3445 34.3245,50.3445 C33.2225,50.3445 32.329,49.451 32.329,48.349 C32.329,47.2465 33.2225,46.353 34.3245,46.353 C35.4275,46.353 36.321,47.2465 36.321,48.349" id="Fill-21"></path>
                    <path d="M30.398,54.283 C27.94,58.674 25.8485,63.2725 24.2265,68.035 C22.5715,72.786 21.359,77.684 20.5315,82.642 C19.642,87.591 19.2045,92.618 19.1155,97.647 C19.012,102.678 19.3375,107.717 20.036,112.702 C20.0465,112.775 19.9955,112.843 19.9225,112.8525 C19.858,112.862 19.798,112.8235 19.7775,112.764 L19.7695,112.741 C18.107,107.8785 17.252,102.7625 16.998,97.6225 L16.8955,95.6915 C16.8785,95.047 16.897,94.403 16.896,93.7585 C16.8865,92.468 16.955,91.18 17.0005,89.8885 C17.161,87.311 17.475,84.743 17.876,82.188 C18.102,80.9145 18.363,79.648 18.658,78.3885 C18.929,77.1245 19.2605,75.873 19.606,74.628 C20.3925,72.163 21.1485,69.689 22.2205,67.332 C24.2195,62.576 26.847,58.073 30.164,54.149 L30.1785,54.131 C30.2265,54.0745 30.311,54.0675 30.3675,54.1155 C30.4175,54.1575 30.4285,54.228 30.398,54.283" id="Fill-22"></path>
                    <path d="M78.877,123.076 C78.8485,120.248 78.707,117.4215 78.497,114.5945 C78.2875,111.7675 78.037,108.9405 77.6715,106.1135 C77.2855,103.2865 76.7985,100.4585 76.431,97.6305 L75.447,89.143 C75.147,86.314 75.0155,83.484 74.8915,80.654 C74.765,77.824 74.5885,74.9935 74.7905,72.164 C74.999,69.335 75.4105,66.507 76.0095,63.6805 C76.311,62.267 76.65,60.8545 77.0835,59.4425 C77.4955,58.0305 77.9685,56.619 78.595,55.209 C78.69,54.997 78.938,54.902 79.15,54.996 C79.2485,55.04 79.3225,55.1175 79.363,55.209 L79.365,55.214 C79.992,56.6315 80.465,58.048 80.877,59.4635 C81.311,60.8795 81.65,62.294 81.951,63.7085 C82.55,66.5375 82.9615,69.3645 83.17,72.1905 C83.372,75.0165 83.1955,77.841 83.069,80.6665 C82.945,83.492 82.8135,86.3175 82.5135,89.143 L81.5295,97.622 C81.162,100.449 80.675,103.2765 80.289,106.105 C79.9235,108.933 79.673,111.7615 79.4635,114.5895 C79.2535,117.418 79.112,120.2465 79.0835,123.0745 C79.084,123.1315 79.0375,123.1785 78.9805,123.1785 C78.9245,123.1785 78.878,123.132 78.877,123.076" id="Fill-23"></path>
                    <path d="M82.943,124.5005 C85.3945,123.129 87.4475,121.092 88.7665,118.6635 C89.4605,117.4725 89.9865,116.1915 90.41,114.89 C90.819,113.579 91.097,112.2345 91.31,110.887 C91.7085,108.183 91.7345,105.432 91.4855,102.7335 C91.2505,100.046 90.719,97.367 90.1425,94.638 C89.561,91.9085 88.981,89.116 88.4815,86.1975 C88.0135,83.287 87.5765,80.1815 88.0295,77.0035 C88.452,73.8555 89.7465,70.6695 91.571,68.083 C93.413,65.5765 95.5795,63.4805 98.238,61.8715 C98.4245,61.759 98.667,61.8185 98.78,62.005 C98.8335,62.0935 98.848,62.1945 98.8285,62.2885 L98.827,62.295 C98.207,65.2835 97.37,67.996 96.739,70.57 C96.583,71.2125 96.446,71.8265 96.3605,72.4335 C96.2395,73.0315 96.131,73.6225 96.0665,74.2375 C96.025,74.54 95.9915,74.8425 95.942,75.139 C95.914,75.4445 95.9,75.752 95.865,76.053 C95.838,76.357 95.7925,76.6525 95.7695,76.959 C95.7555,77.267 95.731,77.5725 95.703,77.8775 C95.511,80.3155 95.235,82.8875 95.262,85.599 C95.265,88.308 95.493,91.1095 95.5815,93.988 C95.674,96.865 95.6785,99.8235 95.3715,102.7875 C95.071,105.736 94.434,108.631 93.5435,111.4255 C92.5965,114.203 91.333,116.884 89.5715,119.1965 C87.846,121.5345 85.5615,123.3905 83.031,124.6705 C82.984,124.6945 82.9265,124.6755 82.9025,124.6285 C82.879,124.5825 82.899,124.5255 82.943,124.5005" id="Fill-24"></path>
                    <path d="M83.936,127.357 C86.5085,127.014 89.0215,126.243 91.248,124.99 C92.373,124.386 93.3995,123.624 94.372,122.819 C95.331,121.992 96.1915,121.063 96.989,120.0905 C100.1655,116.1405 101.703,111.112 102.1155,106.08 C102.34,103.5575 102.5555,101.059 102.7165,98.5435 C102.8725,96.0165 102.834,93.5105 103.158,90.943 C103.326,89.622 103.587,88.232 104.0045,86.8245 C104.4055,85.419 104.969,83.971 105.821,82.5815 C106.6595,81.206 107.8445,79.8545 109.381,79.035 C110.9135,78.208 112.6535,78.047 114.0755,78.4845 C114.2845,78.5485 114.4025,78.7705 114.338,78.9795 C114.311,79.067 114.257,79.138 114.1875,79.187 L114.1705,79.1985 C113.013,80.014 112.2495,80.883 111.841,81.8065 C111.4205,82.7195 111.237,83.669 111.1065,84.7035 C110.846,86.771 110.9495,89.118 110.8085,91.6505 C110.6765,94.278 110.068,96.9595 109.4165,99.5865 C109.0925,100.904 108.729,102.221 108.317,103.5215 C107.89,104.823 107.3775,106.1 106.8245,107.36 C106.274,108.62 105.671,109.857 105.021,111.067 C104.397,112.2845 103.725,113.4755 103.0365,114.647 C101.657,116.9905 100.057,119.1975 98.195,121.157 C96.3025,123.088 94.0795,124.6915 91.633,125.7655 C89.1915,126.855 86.5635,127.3765 83.959,127.590429 C83.8945,127.5955 83.838,127.5475 83.8325,127.483 C83.8275,127.4205 83.8745,127.3655 83.936,127.357" id="Fill-25"></path>
                    <path d="M84.176,130.5025 C89.053,132.081 94.3965,132.1735 99.1025,130.614 C101.4435,129.8135 103.6215,128.647 105.4275,127.054 C107.24,125.4645 108.6785,123.5695 109.488,121.4035 C109.913,120.3335 110.2255,119.225 110.5095,118.099 C110.7935,116.9745 111.078,115.829 111.295,114.6355 C111.7635,112.2615 111.965,109.6945 112.7555,107.1495 C113.502,104.7285 114.712,101.692 116.889,99.4035 C117.9685,98.253 119.3005,97.2325 120.838,96.659 C122.3645,96.08 124.0505,96.0025 125.436,96.5275 C125.6405,96.605 125.7435,96.834 125.666,97.0385 C125.633,97.126 125.5725,97.1945 125.4975,97.239 L125.4875,97.2455 C123.1055,98.6555 122.248,100.4955 121.5585,102.471 C121.2345,103.4695 120.9745,104.5055 120.777,105.5685 C120.5945,106.5685 120.42,107.8575 120.15,109.0575 C119.651,111.4955 118.751,113.9615 117.776,116.5305 C117.266,117.806 116.7515,119.111 116.055,120.367 C115.3585,121.6205 114.5415,122.8335 113.6095,123.952 C109.855,128.461 104.8445,131.3555 99.563,132.3955 C94.2625,133.384 88.9045,132.577 84.104,130.702 C84.05,130.6805 84.023,130.6195 84.044,130.5645 C84.0645,130.5125 84.123,130.486 84.176,130.5025" id="Fill-26"></path>
                    <path d="M83.3065,133.3705 C85.1195,135.207 87.174,136.7865 89.411,137.969 C91.6625,139.117 94.087,139.883 96.554,140.0915 C101.4765,140.577 106.49,139.0705 110.3635,136.0915 C111.3225,135.3285 112.172,134.427 112.959,133.4945 C113.762,132.5825 114.496,131.6255 115.2835,130.7505 C116.837,128.958 118.118,126.9735 119.384,125.013 C120.82,122.7805 122.92,120.459 125.9265,118.9595 C127.417,118.2265 129.2035,117.7745 130.9275,117.9495 C132.6515,118.11 134.1745,118.893 135.19,120.0085 C135.3435,120.1765 135.3305,120.437 135.1625,120.5905 C135.1035,120.644 135.0325,120.6775 134.9595,120.691 L134.946,120.6935 C133.5265,120.9475 132.407,121.3755 131.5705,121.959 C130.7305,122.538 130.115,123.222 129.5065,123.9905 C128.2885,125.5325 127.258,127.455 125.7425,129.445 C124.0355,131.72 121.94,133.6885 119.7495,135.4705 C117.534,137.2555 114.8385,138.3795 112.271,139.4125 C110.991,139.947 109.7085,140.4485 108.402,140.868 C107.087,141.266 105.765,141.6195 104.417,141.849 C101.729,142.297 98.9605,142.388 96.299,141.856 C93.6315,141.3725 91.1175,140.2795 88.899,138.839 C86.691,137.366 84.773,135.539 83.1445,133.514 C83.107,133.4675 83.115,133.399 83.161,133.3615 C83.2045,133.327 83.268,133.3315 83.3065,133.3705" id="Fill-27"></path>
                    <path d="M80.9595,129.453 C80.9595,130.5455 80.0735,131.432 78.9805,131.432 C77.887,131.432 77.0015,130.5455 77.0015,129.453 C77.0015,128.3595 77.887,127.474 78.9805,127.474 C80.0735,127.474 80.9595,128.3595 80.9595,129.453" id="Fill-28"></path>
                    <path d="M73.8885,124.6705 C71.358,123.3905 69.0735,121.5345 67.348,119.1965 C65.586,116.884 64.323,114.203 63.3765,111.4255 C62.4855,108.631 61.8485,105.736 61.548,102.7875 C61.2405,99.8235 61.2455,96.865 61.338,93.988 C61.4265,91.1095 61.6545,88.308 61.657,85.599 C61.6845,82.8875 61.408,80.3155 61.2165,77.8775 C61.1885,77.5725 61.164,77.267 61.15,76.959 C61.127,76.6525 61.0815,76.357 61.055,76.053 C61.0195,75.752 61.005,75.4445 60.9775,75.139 C60.928,74.8425 60.8945,74.54 60.853,74.2375 C60.7885,73.6225 60.68,73.0315 60.559,72.4335 C60.4735,71.8265 60.3365,71.2125 60.1805,70.57 C59.5495,67.996 58.7125,65.2835 58.0925,62.295 L58.091,62.289 C58.0465,62.076 58.1835,61.867 58.397,61.823 C58.4985,61.802 58.599,61.822 58.6815,61.8715 C61.34,63.4805 63.5065,65.5765 65.3485,68.083 C67.173,70.6695 68.4675,73.8555 68.89,77.0035 C69.343,80.1815 68.906,83.287 68.438,86.1975 C67.9385,89.116 67.3585,91.9085 66.777,94.638 C66.2,97.367 65.669,100.046 65.434,102.7335 C65.185,105.432 65.211,108.183 65.6095,110.887 C65.822,112.2345 66.1005,113.579 66.5095,114.89 C66.933,116.1915 67.459,117.4725 68.153,118.6635 C69.472,121.092 71.525,123.129 73.9765,124.5005 C74.023,124.525 74.041,124.583 74.0165,124.6295 C73.9925,124.6755 73.9345,124.692 73.8885,124.6705" id="Fill-29"></path>
                    <path d="M72.9605,127.590247 C70.356,127.3765 67.728,126.855 65.2865,125.7655 C62.84,124.6915 60.6165,123.088 58.7245,121.157 C56.8625,119.1975 55.262,116.9905 53.883,114.647 C53.1945,113.4755 52.5225,112.2845 51.899,111.067 C51.2485,109.857 50.6455,108.62 50.0945,107.36 C49.542,106.1 49.0295,104.823 48.6025,103.5215 C48.1905,102.221 47.827,100.904 47.5025,99.5865 C46.851,96.9595 46.243,94.278 46.111,91.6505 C45.9695,89.118 46.0735,86.771 45.813,84.7035 C45.6825,83.669 45.499,82.7195 45.079,81.8065 C44.67,80.883 43.9065,80.014 42.749,79.1985 L42.7325,79.187 C42.553,79.061 42.5105,78.814 42.6365,78.635 C42.689,78.56 42.7625,78.509 42.844,78.4845 C44.266,78.047 46.006,78.208 47.5385,79.035 C49.0745,79.8545 50.26,81.206 51.099,82.5815 C51.9505,83.971 52.514,85.419 52.915,86.8245 C53.3325,88.232 53.5935,89.622 53.7615,90.943 C54.0855,93.5105 54.047,96.0165 54.203,98.5435 C54.364,101.059 54.5795,103.5575 54.8035,106.08 C55.2165,111.112 56.754,116.1405 59.9305,120.0905 C60.728,121.063 61.5885,121.992 62.5475,122.819 C63.52,123.624 64.5465,124.386 65.6715,124.99 C67.898,126.243 70.411,127.014 72.9835,127.357 C73.048,127.3645 73.094,127.4225 73.0865,127.487 C73.079,127.549 73.022,127.594 72.9605,127.590247" id="Fill-30"></path>
                    <path d="M72.8155,130.702 C68.015,132.577 62.657,133.384 57.3565,132.3955 C52.0745,131.3555 47.0645,128.461 43.31,123.952 C42.378,122.8335 41.561,121.6205 40.8645,120.367 C40.168,119.111 39.6535,117.806 39.143,116.5305 C38.1685,113.9615 37.2685,111.4955 36.77,109.0575 C36.4995,107.8575 36.325,106.5685 36.1425,105.5685 C35.945,104.5055 35.685,103.4695 35.361,102.471 C34.6715,100.4955 33.814,98.6555 31.432,97.2455 L31.422,97.239 C31.234,97.1275 31.1715,96.8845 31.283,96.696 C31.3305,96.616 31.4025,96.558 31.4835,96.5275 C32.869,96.0025 34.555,96.08 36.0815,96.659 C37.6185,97.2325 38.951,98.253 40.0305,99.4035 C42.2075,101.692 43.4175,104.7285 44.164,107.1495 C44.9545,109.6945 45.156,112.2615 45.6245,114.6355 C45.8415,115.829 46.126,116.9745 46.41,118.099 C46.694,119.225 47.0065,120.3335 47.4315,121.4035 C48.2405,123.5695 49.6795,125.4645 51.492,127.054 C53.298,128.647 55.476,129.8135 57.817,130.614 C62.523,132.1735 67.866,132.081 72.7435,130.5025 C72.799,130.4845 72.859,130.5145 72.877,130.57 C72.895,130.623 72.8665,130.6815 72.8155,130.702" id="Fill-31"></path>
                    <path d="M73.775,133.514 C72.1465,135.539 70.2285,137.366 68.0205,138.839 C65.8015,140.2795 63.288,141.3725 60.6205,141.856 C57.959,142.388 55.1905,142.297 52.5025,141.849 C51.1545,141.6195 49.8325,141.266 48.5175,140.868 C47.211,140.4485 45.928,139.947 44.6485,139.4125 C42.081,138.3795 39.385,137.2555 37.17,135.4705 C34.9795,133.6885 32.884,131.72 31.177,129.445 C29.6615,127.455 28.631,125.5325 27.413,123.9905 C26.804,123.222 26.189,122.538 25.349,121.959 C24.5125,121.3755 23.393,120.9475 21.9735,120.6935 L21.9615,120.691 C21.738,120.651 21.5885,120.437 21.629,120.213 C21.6425,120.134 21.6795,120.0635 21.7295,120.0085 C22.745,118.893 24.268,118.11 25.992,117.9495 C27.716,117.7745 29.5025,118.2265 30.993,118.9595 C33.9995,120.459 36.0995,122.7805 37.5355,125.013 C38.8015,126.9735 40.0825,128.958 41.636,130.7505 C42.4235,131.6255 43.157,132.5825 43.9605,133.4945 C44.7475,134.427 45.597,135.3285 46.556,136.0915 C50.4295,139.0705 55.4425,140.577 60.3655,140.0915 C62.8325,139.883 65.257,139.117 67.5085,137.969 C69.7455,136.7865 71.8,135.207 73.6135,133.3705 C73.655,133.328 73.723,133.327 73.766,133.369 C73.806,133.4075 73.8085,133.471 73.775,133.514" id="Fill-32"></path>
                </g>
            </g>
        </g>
    </g>
</svg>