<?xml version="1.0" encoding="UTF-8"?>
<svg width="43px" height="43px" viewBox="0 0 43 43" version="1.1" xmlns="http://www.w3.org/2000/svg" xmlns:xlink="http://www.w3.org/1999/xlink">
    <!-- Generator: Sketch 64 (93537) - https://sketch.com -->
    <title>support</title>
    <desc>Created with Sketch.</desc>
    <g id="Home-Page" stroke="none" stroke-width="1" fill="none" fill-rule="evenodd">
        <g id="Trade-Program" transform="translate(-916.000000, -1313.000000)" fill-rule="nonzero">
            <g id="Group-6" transform="translate(736.000000, 1281.000000)">
                <g id="support" transform="translate(180.000000, 32.000000)">
                    <g id="Group-7" fill="#009A78">
                        <circle id="Oval" cx="21.35" cy="21.35" r="21.35"></circle>
                    </g>
                    <path d="M21.6635681,30.5545227 C21.9828835,30.5545227 22.2356746,30.4214749 22.4219421,30.1553785 L22.4219421,30.1553785 L24.8168071,26.8025675 C26.2537261,24.7270178 27.1983675,23.3433178 27.6507307,22.6514681 C28.3159712,21.6136932 28.7616818,20.7621859 28.9878637,20.0969454 C29.2140456,19.4317049 29.3271363,18.6600263 29.3271363,17.7819092 C29.3271363,16.3982092 28.9812111,15.1209478 28.2893614,13.9501251 C27.5975117,12.7793024 26.6661749,11.8479656 25.4953522,11.1561159 C24.3245295,10.4642662 23.0472681,10.118341 21.6635681,10.118341 C20.2798681,10.118341 19.0026068,10.4642662 17.8317841,11.1561159 C16.6609614,11.8479656 15.7296245,12.7793024 15.0377749,13.9501251 C14.3459252,15.1209478 14,16.3982092 14,17.7819092 C14,18.6600263 14.1130906,19.4317049 14.3392725,20.0969454 C14.5654544,20.7621859 15.011165,21.6136932 15.6764055,22.6514681 C16.1287687,23.3433178 17.0734101,24.7270178 18.5103292,26.8025675 L18.5103292,26.8025675 L20.9051942,30.1553785 C21.0914617,30.4214749 21.3442528,30.5545227 21.6635681,30.5545227 Z M21.6635681,29.0377749 C21.1845951,28.3459252 20.5326598,27.4145883 19.7077617,26.2437656 L19.7077617,26.2437656 L19.5880184,26.0441935 C18.1510994,24.0218629 17.206458,22.6514681 16.7540948,21.9330086 C16.1420739,21.0016724 15.7296245,20.2432984 15.5167479,19.6578868 C15.3570902,19.152304 15.2772614,18.5269785 15.2772614,17.7819092 C15.2772614,16.6376957 15.5633149,15.5733116 16.1354213,14.5887558 C16.7075278,13.6041999 17.4858589,12.8258688 18.4704147,12.2537624 C19.4549706,11.6816559 20.5193546,11.3956024 21.6635681,11.3956024 C22.8077816,11.3956024 23.8721657,11.6816559 24.8567215,12.2537624 C25.8412774,12.8258688 26.6196085,13.6041999 27.1917149,14.5887558 C27.7638214,15.5733116 28.0498749,16.6376957 28.0498749,17.7819092 C28.0498749,18.5269785 27.9700461,19.152304 27.8103884,19.6578868 C27.5975117,20.2432984 27.1850623,21.0016724 26.5730415,21.9330086 C26.1206783,22.6514681 25.1760369,24.0218629 23.7391178,26.0441935 L23.7391178,26.0441935 L21.6635681,29.0377749 Z M22.0227979,20.9750625 C22.1026267,20.9750625 22.175803,20.9418007 22.2423272,20.8752765 C22.3088514,20.8087523 22.3421132,20.735576 22.3421132,20.6557472 L22.3421132,20.6557472 L22.3421132,20.0969454 C23.1404016,19.6978012 23.7258132,19.3119616 24.0983476,18.9394273 C24.6305396,18.4338444 24.8966359,17.8351282 24.8966359,17.1432785 C24.8966359,16.3183803 24.6039304,15.5866162 24.0185188,14.9479855 C23.4064979,14.282745 22.6348188,13.9501251 21.7034825,13.9501251 C20.8785844,13.9501251 20.1667775,14.2228734 19.5680612,14.7683706 C18.969345,15.3138679 18.6167678,15.9857604 18.5103292,16.7840487 C18.5103292,16.8904874 18.543591,16.9769682 18.6101152,17.0434924 C18.6766394,17.1100167 18.7498157,17.1432785 18.8296445,17.1432785 L18.8296445,17.1432785 L19.4682752,17.1432785 C19.548104,17.1432785 19.6212802,17.1166687 19.6878045,17.0634496 C19.7543287,17.0102306 19.7875905,16.9437064 19.7875905,16.8638776 C19.8674194,16.4115144 20.0869486,16.0256748 20.4461784,15.7063595 C20.8054082,15.3870441 21.2245095,15.2273864 21.7034825,15.2273864 C22.2888942,15.2273864 22.754562,15.4203059 23.1004872,15.8061455 C23.4464123,16.1919851 23.6193746,16.6376957 23.6193746,17.1432785 C23.6193746,17.5158128 23.4198025,17.861738 23.0206583,18.1810533 C22.7279528,18.4205398 22.1957602,18.7398552 21.4240816,19.1389993 C21.1845951,19.245438 21.0648519,19.4317049 21.0648519,19.6978012 L21.0648519,19.6978012 L21.0648519,20.6557472 C21.0648519,20.735576 21.0914617,20.8087523 21.1446807,20.8752765 C21.1978997,20.9418007 21.2777286,20.9750625 21.3841672,20.9750625 L21.3841672,20.9750625 L22.0227979,20.9750625 Z M21.6635681,23.8489006 C21.9296645,23.8489006 22.1558457,23.7557672 22.3421132,23.5694997 C22.5283807,23.3832322 22.6215141,23.1570509 22.6215141,22.8909546 C22.6215141,22.6248583 22.5283807,22.398677 22.3421132,22.2124095 C22.1558457,22.026142 21.9296645,21.9330086 21.6635681,21.9330086 C21.3974718,21.9330086 21.1712905,22.026142 20.985023,22.2124095 C20.7987556,22.398677 20.7056221,22.6248583 20.7056221,22.8909546 C20.7056221,23.1570509 20.7987556,23.3832322 20.985023,23.5694997 C21.1712905,23.7557672 21.3974718,23.8489006 21.6635681,23.8489006 Z" id="" fill="#FFFFFF"></path>
                </g>
            </g>
        </g>
    </g>
</svg>