<?xml version="1.0" encoding="UTF-8"?>
<svg width="43px" height="43px" viewBox="0 0 43 43" version="1.1" xmlns="http://www.w3.org/2000/svg" xmlns:xlink="http://www.w3.org/1999/xlink">
    <!-- Generator: Sketch 64 (93537) - https://sketch.com -->
    <title>swatch</title>
    <desc>Created with Sketch.</desc>
    <g id="Home-Page" stroke="none" stroke-width="1" fill="none" fill-rule="evenodd">
        <g id="Trade-Program" transform="translate(-1105.000000, -1313.000000)" fill-rule="nonzero">
            <g id="swatch" transform="translate(1105.000000, 1313.000000)">
                <circle id="Oval" fill="#009A78" cx="21.35" cy="21.35" r="21.35"></circle>
                <line x1="21.98" y1="12.2555556" x2="30.7244444" y2="21" id="Path" fill="#FFFFFF"></line>
                <polygon id="Path" fill="#FFFFFF" points="30.7444444 28.4611111 31.9715556 27.234 30.7291111 25.9915556 32 24.7206667 30.7444444 23.4648889 31.9866667 22.2224444 31.2424444 21.4782222 29.5146667 23.206 28.2722222 21.9635556 27.0166667 23.2191111 25.7457778 21.9482222 24.5033333 23.1908889 23.276 21.9635556 22.0468889 23.1926667 19.8073333 20.9533333 20.2862222 20.5137778 21.0493333 19.7504444 19.8004444 18.5013333 20.99 17.3117778 19.7606667 16.0826667 21.0448889 14.7984444 19.7628889 13.5164444 21.5017778 11.7773333 20.7264444 11.002 19.4444444 12.2842222 18.1602222 11 16.9311111 12.2293333 15.7413333 11.0395556 14.4924444 12.2886667 13.2408889 11.0371111 13.2688889 11.0671111 12.0264444 12.3095556 13.2555556 13.5388889 12.0284444 14.766 13.2708889 16.0084444 12 17.2793333 13.2555556 18.5351111 12.0131111 19.7775556 13.2555556 21.02 12.002 22.2735556 13.2842222 23.5555556 12 24.8397778 13.2291111 26.0688889 12.0395556 27.2586667 13.2886667 28.5075556 12.0371111 29.7591111 12.0671111 29.7311111 13.3095556 30.9735556 14.5388889 29.7444444 15.766 30.9715556 17.0084444 29.7291111 18.2793333 31 19.5351111 29.7444444 20.7773333 30.9868889 22.02 29.7444444 23.2735556 30.998 24.5555556 29.7157778 25.8397778 31 27.0688889 29.7706667 28.2584444 30.9604444 29.5075556 29.7113333 30.7591111 30.9628889 30.7311111 30.9328889 31.9735556 29.6904444"></polygon>
                <polygon id="Path" fill="#FFFFFF" points="21.9928889 12.2626667 20.7393333 13.5164444 22.0213333 14.7984444 20.7373333 16.0826667 21.9664444 17.3117778 20.7768889 18.5013333 22.026 19.7504444 20.7744444 21.002 20.8044444 20.974 22.0468889 22.2164444 23.276 20.9871111 24.5033333 22.2144444 25.7457778 20.972 27.0166667 22.2428889 28.2722222 20.9871111 29.5146667 22.2295556 30.7571111 20.9871111"></polygon>
            </g>
        </g>
    </g>
</svg>