<?xml version="1.0" encoding="UTF-8"?>
<svg width="15px" height="15px" viewBox="0 0 15 15" version="1.1" xmlns="http://www.w3.org/2000/svg" xmlns:xlink="http://www.w3.org/1999/xlink">
    <!-- Generator: Sketch 64 (93537) - https://sketch.com -->
    <title>user-circle-solid</title>
    <desc>Created with Sketch.</desc>
    <g id="Home-Page" stroke="none" stroke-width="1" fill="none" fill-rule="evenodd">
        <g id="user-circle-solid" fill="#F69069" fill-rule="nonzero">
            <path d="M7.5,0 C3.35685484,0 0,3.35685484 0,7.5 C0,11.6431452 3.35685484,15 7.5,15 C11.6431452,15 15,11.6431452 15,7.5 C15,3.35685484 11.6431452,0 7.5,0 Z M7.5,2.90322581 C8.96975806,2.90322581 10.1612903,4.09475806 10.1612903,5.56451613 C10.1612903,7.03427419 8.96975806,8.22580645 7.5,8.22580645 C6.03024194,8.22580645 4.83870968,7.03427419 4.83870968,5.56451613 C4.83870968,4.09475806 6.03024194,2.90322581 7.5,2.90322581 Z M7.5,13.3064516 C5.72479839,13.3064516 4.13407258,12.5020161 3.06955645,11.2439516 C3.63810484,10.1733871 4.75100806,9.43548387 6.0483871,9.43548387 C6.12096774,9.43548387 6.19354839,9.44758065 6.26310484,9.46875 C6.65625,9.59576613 7.06754032,9.67741935 7.5,9.67741935 C7.93245968,9.67741935 8.34677419,9.59576613 8.73689516,9.46875 C8.80645161,9.44758065 8.87903226,9.43548387 8.9516129,9.43548387 C10.2489919,9.43548387 11.3618952,10.1733871 11.9304435,11.2439516 C10.8659274,12.5020161 9.27520161,13.3064516 7.5,13.3064516 Z" id="Shape"></path>
        </g>
    </g>
</svg>